<svg id="Calque_1" data-name="Calque 1" xmlns="http://www.w3.org/2000/svg" viewBox="0 0 525.2 484.62">
  <defs>
    <style>
    .cls-1 {
      fill: #505050;
    }
    .cls-2 {
      fill: #fcb109;
    }
    </style>
  </defs>

  <path class="cls-2"
        d="M320,249.2l6.27,3.88v57c0,6.76,5.45,9.61,12.22,6.42s12.19-11.25,12.19-18V246.3a12.2,12.2,0,0,0-5.78-10.37l-.93-.58-149.62-92.6-6.46-4L164.59,153l6,3.7Z"/>
  <path class="cls-1"
        d="M87.64,334.79,253.92,436.91l.14.06.13.1a6.28,6.28,0,0,0,.94.36c.19.09.38.16.57.23a6.82,6.82,0,0,0,1.74.24,6.51,6.51,0,0,0,1.76-.25c.19,0,.36-.15.55-.22a6.09,6.09,0,0,0,1-.39c.06,0,.09-.07.15-.11a.51.51,0,0,0,.15-.07L423.13,334.75a6.68,6.68,0,0,0,3.13-5.68V199.39c0-.23-.05-.45-.09-.67a6.67,6.67,0,0,0-.13-1,6.15,6.15,0,0,0-.28-.71,5.76,5.76,0,0,0-.37-.89,5.35,5.35,0,0,0-.44-.62,8.61,8.61,0,0,0-.58-.77c-.19-.18-.42-.33-.62-.5a8.06,8.06,0,0,0-.64-.52L261,92.23a6.73,6.73,0,0,0-7-.1L87.76,189.75a6,6,0,0,0-.94.72c-.14.12-.3.21-.42.33a7.14,7.14,0,0,0-.71.93,3.79,3.79,0,0,0-.34.45,5.91,5.91,0,0,0-.45,1.07c-.08.18-.16.36-.22.54a6.48,6.48,0,0,0-.24,1.75V329.07A6.71,6.71,0,0,0,87.64,334.79Zm77-181.79L188,138.73l6.46,4,63-37,149.2,93.39L344,235.33l.93.58a12.2,12.2,0,0,1,5.78,10.37v.7l62.12-36V325.36L264.15,419V297l62.14-35.94v-8L320,249.2l-62.56,36.19-153-89.85,66.15-38.84ZM97.87,207.27,250.72,297V419.17L97.87,325.31Z"/>
</svg>
