<svg id="Calque_1" data-name="Calque 1" xmlns="http://www.w3.org/2000/svg" viewBox="0 0 525.2 484.62">
  <defs>
    <style>
    .cls-2 {
      fill: #fff;
    }</style>
  </defs>
  <path class="cls-2"
        d="M402.57,325.17l-24.29-71.61c-15.88-46.95-52.84-76-96.44-75.79l-40.06.17c-43.61.23-80.31,29.59-95.75,76.65L122.53,326c-15.16,37.24,10.91,62.78,14.48,66h0a35,35,0,0,0,11.09,7.23,32.63,32.63,0,0,0,5.11,1.53,69.11,69.11,0,0,0,11.27,1.63,5.9,5.9,0,0,0,1.39.87l93.25,43.07a6.2,6.2,0,0,0,3,.61,6.68,6.68,0,0,0,1.73.07,6.45,6.45,0,0,0,2.15-.6l93.76-44a6.53,6.53,0,0,0,2.08-1.57,54.73,54.73,0,0,0,10.53-1,32.52,32.52,0,0,0,15.81-8.61C388.52,390.91,418.86,364.17,402.57,325.17ZM262.8,240.3l78.6,34.93-79.3,37.2-78.55-36.28ZM187.73,391.09a35.76,35.76,0,0,0,10.06-25.51,34.92,34.92,0,0,0-10.57-24.8l-1.35-1.55a5.91,5.91,0,0,0-1-1l-10-7.47-.19-44.43,80.18,37,.48,106.79-73.73-34.06A33.62,33.62,0,0,0,187.73,391.09Zm80.1-66.95L350,285.6l.19,44.42-9.91,7.53a6.5,6.5,0,0,0-1.1,1l-.93,1.12a35.89,35.89,0,0,0-.45,50.72,33.28,33.28,0,0,0,6.22,5L268.3,430.94Zm72.71,40.95a22.83,22.83,0,0,1,6.88-16.18l13.22-10.47a6.53,6.53,0,0,0,2.59-5.21L363,275.32a6.44,6.44,0,0,0-1.14-3.65,6.55,6.55,0,0,0-3.17-3l-93.23-41.43a6.46,6.46,0,0,0-5.34,0L166.69,269.5a5.9,5.9,0,0,0-1.24.72,7.9,7.9,0,0,0-.91.48,6.56,6.56,0,0,0-3,5.51l.26,57.93a6.56,6.56,0,0,0,2.63,5.19l12.1,9,1.27,1.42a22.9,22.9,0,0,1,.59,32.3,22,22,0,0,1-11.24,6.14,6.6,6.6,0,0,0-2.5,1.17,61.57,61.57,0,0,1-8.54-1.3,19.76,19.76,0,0,1-3-.87,23.07,23.07,0,0,1-7.36-4.86c-.24-.2-23.67-20.57-11-51.82l23.65-71.84c13.65-41.56,45.6-67.5,83.44-67.69l40.06-.17c37.82-.17,70,25.48,84,66.94l24.44,72c12.81,30.67-9.9,50.86-11,51.81a22.59,22.59,0,0,1-6.94,4.6,20.36,20.36,0,0,1-2.85.87c-2.31.47-7.94,1.18-10.75.41l-.2-.06-.32-.07a22,22,0,0,1-11.24-6,22.74,22.74,0,0,1-6.5-16.22Z"/>
  <path class="cls-2"
        d="M245.5,392.5l7.07,3.27-12.88-25.36-9.88,10.78-10.2-20.05-12.5,13.66,5.71,2.63.1,20.19-4.61-2.13.05,9.63,41.9,19.31v-9.65l-4.62-2.12Zm-12.58-5.82.08,20.18-7.5-3.45-.09-20.2,1.78.82h0Z"/>
  <path class="cls-2"
        d="M209.65,85.73l101.52-.46h.55a6.14,6.14,0,0,0,5.13-3.86l11.67-29.56a10.52,10.52,0,0,0-1-10.39c-2.13-2.85-5.65-4.19-10-3.77h0L215.93,50.83a14.73,14.73,0,0,0-12.5,14.29l.08,14.47a6.12,6.12,0,0,0,6.12,6.14Zm6.09-12.3V65.06A2.38,2.38,0,0,1,217.51,63L316,50.24,307,73Z"/>
  <path class="cls-2"
        d="M260.8,171.4c1.72,0,3.5-.1,5.28-.27a57.08,57.08,0,0,0,51.17-49.72l23.07-.1c8.75-.07,11.49-4.2,12.36-6.65,2.56-7.16-6.83-11.58-10.36-13.25L313.83,88a5.89,5.89,0,0,0-2.67-.6l-101.51.45A6.1,6.1,0,0,0,203.56,94v0l.15,26.61A57,57,0,0,0,260.8,171.4ZM216,119.93l-.09-19.81,94-.42,20,9.38-18.33.09a6.13,6.13,0,0,0-6.05,6,44.55,44.55,0,0,1-44.68,44C237.74,159.23,218.48,142.26,216,119.93Z"/>
</svg>
