<svg id="Calque_1" data-name="Calque 1" xmlns="http://www.w3.org/2000/svg" viewBox="0 0 525.2 484.62"><defs><style>.cls-1{fill:#fbc109;}.cls-2{fill:#636569;}</style></defs><rect class="cls-1" width="525.2" height="484.62"/><path class="cls-2" d="M369.22,130a20.74,20.74,0,0,0-3.53-9.69c-3.86-5.72-9.76-10-17.11-13.71-11.05-5.58-25.7-9.91-43-13a338.84,338.84,0,0,0-58.2-4.77c-32.2,0-61.35,4-83,10.63-10.86,3.36-19.88,7.34-26.72,12.3a34.19,34.19,0,0,0-8.52,8.53,20.33,20.33,0,0,0-3.59,11.29V154a20.33,20.33,0,0,0,3.59,11.29c3.87,5.72,9.77,10,17.12,13.71,11,5.58,25.69,9.91,43,13a339,339,0,0,0,58.21,4.77c32.2,0,61.34-4,83-10.63,10.86-3.36,19.87-7.34,26.72-12.3a34.15,34.15,0,0,0,8.51-8.53A20.26,20.26,0,0,0,369.3,154V130Zm-121.8,36.76c-63.12,0-114.28-15.74-114.28-35.16S184.3,96.45,247.42,96.45s114.27,15.74,114.27,35.16-51.16,35.16-114.27,35.16Z"/><path class="cls-2" d="M399.59,165.71a20.74,20.74,0,0,0-3.53-9.69c-3.87-5.72-9.76-10-17.11-13.72A108,108,0,0,0,365,136.55l-.78,7.77c17.32,6.16,27.8,14.2,27.8,23,0,19.42-51.16,35.16-114.27,35.16-60.38,0-109.81-14.41-114-32.66l-7.88-2.58v22.45A20.26,20.26,0,0,0,159.51,201c3.87,5.72,9.77,10,17.11,13.72,11,5.57,25.7,9.9,43,13a339,339,0,0,0,58.21,4.77c32.2,0,61.34-4,83-10.63,10.87-3.36,19.88-7.34,26.73-12.29a34.19,34.19,0,0,0,8.51-8.54,20.17,20.17,0,0,0,3.59-11.29v-24Z"/><path class="cls-2" d="M368.23,208.53l-7.62,1.35a11.74,11.74,0,0,1,1.08,4.84c0,19.42-51.16,35.16-114.27,35.16s-114.28-15.74-114.28-35.16,51.16-35.16,114.28-35.16a346.76,346.76,0,0,1,44.74,2.8l10.18-6.18A343.55,343.55,0,0,0,247.42,172c-32.2,0-61.35,4-83,10.63-10.86,3.36-19.88,7.34-26.72,12.3a34.19,34.19,0,0,0-8.52,8.53,20.33,20.33,0,0,0-3.59,11.29V237.1a20.33,20.33,0,0,0,3.59,11.29c3.87,5.72,9.77,9.95,17.12,13.71,11,5.58,25.69,9.91,43,13a339,339,0,0,0,58.21,4.77c32.2,0,61.34-4,83-10.63,10.86-3.36,19.87-7.34,26.72-12.3a34.15,34.15,0,0,0,8.51-8.53,20.26,20.26,0,0,0,3.6-11.29v-24h-.07A19.46,19.46,0,0,0,368.23,208.53Z"/><path class="cls-2" d="M361.69,268.27c0,19.41-51.16,35.16-114.27,35.16s-114.28-15.75-114.28-35.16a11.23,11.23,0,0,1,.53-3.4q-3.66-1.35-7.08-2.77a19,19,0,0,0-1,6.16v22.38a20.33,20.33,0,0,0,3.59,11.29c3.87,5.72,9.77,9.95,17.12,13.72,11,5.57,25.69,9.9,43,13a338,338,0,0,0,58.21,4.78c32.2,0,61.34-4,83-10.64,10.86-3.36,19.87-7.34,26.72-12.29a34.19,34.19,0,0,0,8.51-8.54,20.26,20.26,0,0,0,3.6-11.29v-24h-.07a20,20,0,0,0-1.63-6.26c-2.24,1-4.58,2-7,2.95A11.72,11.72,0,0,1,361.69,268.27Z"/><path class="cls-2" d="M361.69,320.21c0,19.42-51.16,35.16-114.27,35.16s-114.28-15.74-114.28-35.16a11.23,11.23,0,0,1,.53-3.4q-3.66-1.33-7.08-2.76a19,19,0,0,0-1,6.16v22.37a20.38,20.38,0,0,0,3.59,11.3c3.87,5.71,9.77,9.95,17.12,13.71,11,5.58,25.69,9.91,43,13a338,338,0,0,0,58.21,4.78c32.2,0,61.34-4,83-10.63,10.86-3.36,19.87-7.34,26.72-12.3a34.15,34.15,0,0,0,8.51-8.53,20.29,20.29,0,0,0,3.6-11.3v-24h-.07a20,20,0,0,0-1.63-6.26c-2.24,1-4.58,2-7,3A11.8,11.8,0,0,1,361.69,320.21Z"/><path class="cls-2" d="M215.25,108.75l4.34,12.68,8.63-12.83,7.31-.08-12.36,18.67L234,152H223.08l-5.9-18.35L205.06,152H195l18.61-24.29-6.12-18.85Z"/><path class="cls-2" d="M256,136.06h-7.24L249.82,152h-9.91l-.11-43.51,12.87-.15c8.37-.1,13.44,3.59,15.39,11.91,1.09,4.67.72,8.51-1.23,11.33S261.15,136,256,136.06Zm-7.78-8L255,128c4.2,0,5.84-2.7,5-7.74-.4-2.34-1.13-4-2.21-4.91A6.43,6.43,0,0,0,253.3,114l-6,.06Z"/><path class="cls-2" d="M282.6,152l-12.31-43.87,22.78-.27,2.87,5.85-16.42.17,3.9,11.23,14.74-.1,3.65,7.86-15.67.08,6.6,19Z"/></svg>