<svg id="Calque_1" data-name="Calque 1" xmlns="http://www.w3.org/2000/svg" viewBox="0 0 525.2 484.62"><defs><style>.cls-1{fill:#fbc109;}.cls-2{fill:#636569;stroke:#636569;stroke-miterlimit:10;stroke-width:4.27px;}</style></defs><rect class="cls-1" width="525.2" height="484.62"/><path class="cls-2" d="M453.2,155.71a8,8,0,0,0,1.28-11.15L358.62,23.23a8,8,0,0,0-11.19-1.32L268.31,84.52l-9.88,7.83c-2.55-.11-5.08-.35-7.65-.35-48.61,0-96.95,19.87-129.33,53.15C55.75,212.69,51.25,317.4,111,388.73a180.8,180.8,0,0,0,241.33,33.56C391,395.78,415.82,359.66,426.1,315c10.37-45.08,5.38-86.46-15.23-125.4l6.45-5.16ZM348,31.67,336,135.86h0l-6.4,55.49-54-6.24h0L169.45,172.92Zm34.1,350.75C349,422,301.05,444.67,250.66,444.67c-43.81,0-86.12-17-119.14-47.83-33.59-31.37-52.39-74.58-53-121.66-.55-46.9,18-92.3,51-124.55a171.32,171.32,0,0,1,117.74-49.47L236.14,110l-76,60.2a7.92,7.92,0,0,0-3,5.35v.9a8,8,0,0,0,1.05,3.72,7.86,7.86,0,0,0,.7,1.27l4.37,5.44c-2.42,2.42-4.83,4.85-7,7.48-40.11,47.95-37.08,120.17,6.9,164.43A121.9,121.9,0,0,0,250,395.18a124.22,124.22,0,0,0,79-28.82c36.45-30.25,55.28-86.94,34.68-139l6.64-5.3L397,200.77l6.51-5.21C430.61,249.15,430.81,324.25,382.1,382.42ZM230.7,287.91l62.21,10.51a48.11,48.11,0,0,1-9.16,11.6,50,50,0,0,1-74.56-65.85l29.45,36.68-6.56-1.1a4.14,4.14,0,0,0-1.64,8.12Zm55.84,1,2.49-2,.44-.35,10.46-8.35a53.74,53.74,0,0,1-3.57,13.11,4,4,0,0,0-2.06-1.1l-6-1h0Zm-86.3-48.7c-15.52,23.84-12,56.14,8.15,75.13a61.37,61.37,0,0,0,42.1,17.05A58.68,58.68,0,0,0,286,320.47a59.66,59.66,0,0,0,23.55-49.92l7.83-6.26,31.74-25.37,6.8-5.44c13.4,36.49,8.34,83.6-24.69,117.77A112.79,112.79,0,1,1,166.51,197.13c.89-.95,1.8-1.89,2.72-2.81l5.22,6.51L197.77,230l5.31,6.61c-.94,1.2-2,2.29-2.84,3.63Zm75.76,47-25.54-4.32-81.88-102,102.1,11.78,7.91.91,54,6.23a3.89,3.89,0,0,0,2.92-.84,4,4,0,0,0,1.49-2.66l6.39-55.5.92-7.92L355.87,32.59l88.31,111.79c3.33,5.11.35,8.06.35,8.06Z"/></svg>