<svg id="Calque_1" data-name="Calque 1" xmlns="http://www.w3.org/2000/svg" viewBox="0 0 525.2 484.62"><defs><style>.cls-1{fill:#fbc109;}.cls-2{fill:#636569;stroke:#636569;stroke-miterlimit:10;stroke-width:3.56px;}</style></defs><rect class="cls-1" width="525.2" height="484.62"/><path class="cls-2" d="M346.54,411.48a9.16,9.16,0,0,0,2-5.7l-.19-62,67.18-7.22a9.2,9.2,0,0,0,8.16-10.07l-6.75-66.33,47.42-11.91a9.18,9.18,0,0,0,6.68-11.1L428.55,63.82a9.22,9.22,0,0,0-11.12-6.75l-267.7,65.85a9.15,9.15,0,0,0-5.69,4.2,6.53,6.53,0,0,0-.47.91,9.2,9.2,0,0,0-.56,6.07l8,31.7-29.74,3a9.17,9.17,0,0,0-6.23,3.37c-.21.27-.4.55-.59.84a9.14,9.14,0,0,0-1.39,5.94l4.38,40-54.39.21A9.14,9.14,0,0,0,56.57,222a10,10,0,0,0-.68.78,9.23,9.23,0,0,0-2,5.77L55.81,408.3a9.2,9.2,0,0,0,9.27,9.1L339.39,415A9.1,9.1,0,0,0,346.54,411.48Zm67.21-91.59c.07,7-4.65,8.07-4.65,8.07l-60.81,6.53L348,227.37a9.17,9.17,0,0,0-2.71-6.5c-.1-.09-.24-.13-.35-.22l52.21-64.29Zm7.42-247.56L460.29,232c1,7-3.49,8.62-3.49,8.62L416,250.87,405.61,149a9.18,9.18,0,0,0-3.35-6.2,9.28,9.28,0,0,0-6.73-2l-16.68,1.71Zm-7.86-4.76-45.9,76L207.47,160l-49.22-29.73ZM153.53,138.19l38.73,23.38-32,3.28ZM390,150.55l-55,67.67-155.28.59-51-41.48ZM165.24,218.87l-38.52.14-3.78-34.5Zm167.05,8.56-85.15,86h0v.05l-45.35,45.77-44.52-44.1h0L69.62,228.42Zm1.57,178.42-262.3,2.28L65,401.72,63.18,235l84.27,83.45L154,324.9,198.54,369a4.61,4.61,0,0,0,6.49,0l45.36-45.81,6.47-6.53,81.95-82.75.47,164.38c-.62,7-5.42,7.56-5.42,7.56Z"/></svg>