<svg id="Calque_1" data-name="Calque 1" xmlns="http://www.w3.org/2000/svg" viewBox="0 0 525.2 484.62"><defs><style>.cls-1{fill:#fbc109;}.cls-2{fill:#636569;}</style></defs><rect class="cls-1" width="525.2" height="484.62"/><path class="cls-2" d="M253.46,229.57l1.32-46,11.11-4.66-.22,7.68a6.9,6.9,0,0,0,6.67,7.12h.05a6.18,6.18,0,0,0,1.36-.09,7,7,0,0,0,5.76-6.63l.4-14,49.24-20.66c.1,0,.19-.11.3-.16s.45-.23.67-.36a4.32,4.32,0,0,0,.5-.35,6,6,0,0,0,.55-.45c.16-.15.31-.3.45-.46s.31-.36.45-.55a6.37,6.37,0,0,0,.35-.55c.08-.13.17-.24.24-.37a1.83,1.83,0,0,0,.11-.29l.12-.22c.05-.12.07-.25.11-.38s.15-.46.21-.69a5.2,5.2,0,0,0,.11-.67c0-.23.05-.42.06-.64s0-.49,0-.73a2,2,0,0,0-.06-.59c-.06-.2-.1-.47-.16-.71a6.34,6.34,0,0,0-.19-.61c-.07-.2-.05-.19-.09-.28l-.5-.92a5,5,0,0,0-.41-.61c-.12-.15-.24-.3-.37-.44a7.8,7.8,0,0,0-.58-.57l-.41-.33a7.11,7.11,0,0,0-.74-.47c-.08-.05-.15-.11-.23-.15L193.2,70.49a7,7,0,0,0-5.91-.17L47.08,131.77c-.07,0-.12.08-.19.11a6.59,6.59,0,0,0-1.4.88l-.09.07a6.34,6.34,0,0,0-1.2,1.33l-.17.27c-.14.21-.27.42-.39.64a6,6,0,0,0-.26.71c0,.11-.09.21-.12.31a6.63,6.63,0,0,0-.3,1.77h0L39,279.24a7,7,0,0,0,3.91,6.44l138.54,66.75.18.07.17.06a6.93,6.93,0,0,0,1,.34l.29.07a6.37,6.37,0,0,0,1.07.12h.25a7.72,7.72,0,0,0,1.18-.09h0a6.3,6.3,0,0,0,1.53-.47h.15l47.92-21.62a7,7,0,0,0,3.46-9.18,6.91,6.91,0,0,0-9.15-3.44h0l-38,17.14,1.81-126,47.49-19.92-1.13,39.69a6.9,6.9,0,0,0,6.68,7.11h.05a7.71,7.71,0,0,0,1.36-.09A7,7,0,0,0,253.46,229.57ZM52.87,275.2,56.47,149l123,60.05L177.61,335.3ZM248.22,171.34l-120.07-60,10.32-4.52,121.2,59.71Zm28.37-11.9L155.05,99.56l34.79-15.25L310,145.42Zm-90,37.74L66.33,138.44l45.32-19.86,119.72,59.83Z"/><path class="cls-2" d="M484.42,396.69l-55.75-59a6.92,6.92,0,0,0-8.07-1.42l-13.26-14a91.17,91.17,0,0,0,24.16-56.6c1.32-23.36-6.56-45.35-22.18-61.91-19-20.12-47.26-29.24-75.6-24.4a92.61,92.61,0,0,0-48.06,24.16c-36,34-39,89.4-6.82,123.46,19,20.12,47.27,29.24,75.6,24.4a92.19,92.19,0,0,0,42.85-19.59l13.3,14.1a7,7,0,0,0,1.18,7.78l55.75,59.07a6.91,6.91,0,0,0,9.77.28h0a6.49,6.49,0,0,1,3.29-3.1,6.63,6.63,0,0,0,1.51-2.12,6.81,6.81,0,0,0,2.33-11.08ZM399.25,213.23c13,13.78,19.54,32.11,18.43,51.63A77.82,77.82,0,0,1,393,317.13a78.87,78.87,0,0,1-40.88,20.58c-23.75,4.05-47.38-3.52-63.21-20.27-27-28.52-24.14-75.12,6.26-103.88A78.84,78.84,0,0,1,336.06,193C359.81,188.91,383.44,196.49,399.25,213.23Z"/><path class="cls-2" d="M284.54,294.6a6.93,6.93,0,0,0,4.59,8.65,7.06,7.06,0,0,0,3.2.2,6.53,6.53,0,0,0,2.06-.7L348,274.47a7,7,0,0,0,3.69-5.9l2.25-68a6.92,6.92,0,0,0-13.84-.51v.05l-2.12,64-50,26.41A6.86,6.86,0,0,0,284.54,294.6Z"/></svg>