<svg id="Calque_1" data-name="Calque 1" xmlns="http://www.w3.org/2000/svg" viewBox="0 0 525.2 484.62"><defs><style>.cls-1{fill:#fbc109;}.cls-2{fill:#636569;}</style></defs><rect class="cls-1" width="525.2" height="484.62"/><path class="cls-2" d="M451.48,118.24a4.51,4.51,0,0,0,.46-.68c-.24-.45-.53-.61-1.32-.66l-9.42-1.44q-10-1.53-20-2.91c-6.16-.88-12.4-1.65-18.58-2.5s-12.07-1.57-18.13-2.42c-7.17-.95-14.29-1.94-21.48-3L344.86,102c-3.95-.53-8-1-12-1.54-4.89-.65-9.81-1.27-14.69-2s-9.6-1.38-14.41-2.07C293.87,95,284,93.5,274,92.32c.24.07-.57.34-2.35,1.41a16.77,16.77,0,0,0-2.4,2.51l-29.5,32.32c-1.12,1.16-2.25,2.21-3.51,3.32L230,137.4l-5.71-3.53c-4.13-2.53-8.21-5.1-12.29-7.62-9.87-6-20.06-12.28-29.83-18.83a8.54,8.54,0,0,0-4.61-1.79,10.34,10.34,0,0,0-4.17,1.2c-8.14,3.78-16.41,7.4-24.65,11L91.34,142.9c-4.75,2-9.52,4.11-14.19,6.27a9.17,9.17,0,0,0-3,2c.28.09.9,1,2.63,2.25l8.88,6.19c7.67,5.34,15.34,10.6,23,16,2.45,1.68,4.82,3.51,7.41,5.41l9.41,6.91-4.06,7.53a17.87,17.87,0,0,1-1.88,3.11l-30.68,39c-2.23,2.8-4.46,5.6-6.53,8.49a4.68,4.68,0,0,0-1,2.15,10.32,10.32,0,0,0,2.19,1,11.58,11.58,0,0,0,1.31.23l9.44,1.87,31.4,6.37.14,35.71c.13,19.39.19,38.75.33,58.14,0,4.85.63,5.3,5,6.25q34.82,7.43,69.67,14.67l33.9,7q30,6.15,60,12.49c2.53.51,4.06.49,5.94-.31,11.41-4.75,22.88-9.43,34.31-14.12l36.56-15c10.58-4.38,21.19-8.78,31.8-13.06,2-.89,2.12-1.37,2.2-1.88a37.34,37.34,0,0,0,.68-6.15c-.05-22.47-.18-45-.31-67.41l-.13-32.75L416.23,236c4.22-2,8.19-4,12.13-6q8.68-4.31,17.14-8.74a11.64,11.64,0,0,0,3-2,21.74,21.74,0,0,0-1.88-2.6l-18.77-22.53q-4.62-5.64-9.26-11.34L410,172.35l28.49-37.15C442.74,129.57,447.1,123.89,451.48,118.24ZM226.91,152l.21,46.81c-5.74.78-49.33-6.72-76.93-13.31C176,174.21,201.18,163.24,226.91,152ZM93.74,153c28.39-12.5,55.48-24.43,83.46-36.72q21.11,13.2,42.66,26.66c-4.76,4-75.65,35.21-86.07,38Zm4.81,89c13.27-16.93,25.57-32.58,38.11-48.68,49.1,9,98.06,18,148.1,27.24-12.76,17.69-26.32,34-39.86,51C196.55,261.8,148.25,252.08,98.55,242Zm193,137.07c-51.8-10.83-103.49-21.64-155.7-32.59l-.4-85.09c4,.58,7.71.92,11.3,1.64q46.09,9.39,92.14,18.9c1.48.29,3.08.12,4.46.65,6.17,2.33,10.16-.7,13.56-4.92,5.79-7.2,11.51-14.55,17.26-21.81,5.36-6.88,10.8-13.68,16.41-20.78,1.64,5.93,2.42,136.71,1,144Zm-3.06-167.49c-16.56-3.56-33.27-6.34-50.28-9.43l-.2-52c25.26,3.41,50.34,7.91,75.59,11.88,25,3.89,50,7.83,74.83,13.11q-23.58,9.83-47.22,19.55c-12.23,5-24.49,9.85-36.69,14.91-5.14,2.21-10.06,3.26-16,2ZM396.82,339.15l-94.6,39.08-.71-147.33c3.59,4,6.17,7.21,9,10.11,8.38,8.79,16.74,17.58,25.21,26.28,6.77,6.95,9.39,7.43,17.87,3.17,13.45-6.69,26.8-13.52,40.15-20.31a14.26,14.26,0,0,1,2.11-.74C397.25,254.92,398,325.3,396.82,339.15Zm36.15-123c-29.19,14.88-58.14,29.56-87.4,44.43-13.13-13.9-25.89-27.37-39-41.33,32.32-13.16,64.09-26,96.26-39.17,9.93,11.92,19.82,23.69,30.17,36.08Zm-31.36-50c-26.46-4.1-53.07-8-79.45-12.54-26.15-4.48-52.45-7.83-79.51-13.19,12-13,23.22-25,34.07-36.75,8.6-.4,147.1,18.79,156.31,21.67-10.37,13.5-20.69,26.89-31.42,40.82Z"/><path class="cls-2" d="M345.19,262.76l-10.42-11c-9.84-10.41-19.56-20.69-29.46-31.26l-1.75-1.88,41.75-17c18.95-7.71,37.85-15.39,56.88-23.15l1.2-.49.83,1c5.42,6.53,10.85,13,16.34,19.59q6.79,8.12,13.76,16.48l1.42,1.7-2,1c-21.45,10.93-42.77,21.76-64.18,32.64Zm-35.54-42.83c9.29,9.91,18.43,19.59,27.68,29.38l8.62,9.11,22-11.19c20.75-10.54,41.42-21,62.21-31.64l-12.35-14.78c-5.21-6.23-10.37-12.4-15.52-18.59L346.6,204.88Z"/><path class="cls-2" d="M402.38,168.12l-1-.16L381,164.83c-19.41-3-39.48-6-59.12-9.42-9.95-1.71-19.93-3.25-30-4.8-16.13-2.49-32.81-5.07-49.59-8.39l-3.1-.62L275.92,102h.72c8.54-.31,147.84,18.91,156.92,21.74l2.42.76ZM246.1,139.36c15.67,3,31.24,5.43,46.34,7.76,10.05,1.56,20.05,3.1,30,4.81,19.61,3.4,39.66,6.46,59.06,9.42q9.67,1.47,19.33,3L430,126.49c-20.53-4.14-139.77-20.62-152.46-21Z"/><path class="cls-2" d="M293.51,213.92a26,26,0,0,1-5.34-.57c-12.49-2.69-24.79-4.88-37.8-7.19l-12.44-2.23-1.44-.27-.22-55.49,2,.27c16.87,2.27,34,5.08,50.46,7.79,8.38,1.38,16.77,2.76,25.18,4.08,27.83,4.34,51,8.06,74.92,13.13l5.54,1.18-5.23,2.18q-23.58,9.82-47.23,19.55h0q-7.7,3.15-15.39,6.24c-7.11,2.87-14.21,5.73-21.29,8.67A29.62,29.62,0,0,1,293.51,213.92ZM240,200.71l11,2c12.48,2.22,25.38,4.51,37.92,7.21,4.9,1,9.39.46,15-1.89,7.1-2.94,14.21-5.81,21.33-8.69q7.68-3.09,15.37-6.23,21-8.66,41.94-17.35c-21.87-4.48-43.54-7.94-69.15-11.93-8.42-1.32-16.81-2.7-25.2-4.08-15.83-2.6-32.18-5.29-48.35-7.51Z"/><path class="cls-2" d="M226.05,200.6c-9.82,0-51.83-7.57-76.27-13.4l-5.13-1.2,28.92-12.63c17.54-7.65,35-15.25,52.63-23l2.46-1.08.23,51.05-1.53.21A11.48,11.48,0,0,1,226.05,200.6ZM155.78,185c26.3,6,60.9,11.81,69.57,12.1l-.19-42.4c-16.84,7.3-33.45,14.59-50.16,21.89Z"/><path class="cls-2" d="M133.45,182.84l-43.3-30.17,12.52-5.51c24.93-11,49-21.58,73.82-32.48l.86-.37,11.23,7,32.21,20.12,2.07,1.29L221,144.31c-4.77,4-76.12,35.51-86.75,38.32ZM97.33,153.37,134.11,179c11.37-3.5,69.75-29.13,82.41-36q-15-9.36-29.81-18.63l-9.65-6c-24.5,10.76-48.33,21.25-73,32.1Z"/><path class="cls-2" d="M245.61,273.51,95.39,243.2l7.34-9.36c11.18-14.25,21.77-27.75,32.54-41.57l.65-.84,151.91,27.94-1.63,2.27c-9.83,13.62-20.34,26.66-30.49,39.28-3.14,3.9-6.28,7.8-9.43,11.75Zm-143.9-32.64,142.48,28.76q4.4-5.5,8.77-10.92c9.56-11.88,19.43-24.15,28.73-36.88l-144.3-26.54c-10.54,13.53-20.93,26.77-31.88,40.74Z"/><path class="cls-2" d="M293,381.2l-1.74-.37c-51.8-10.82-103.5-21.63-155.7-32.58l-1.4-.29-.41-88.57,2,.29c1.34.2,2.64.36,3.91.52,2.59.33,5.06.65,7.49,1.14q30,6.12,60,12.31l32.1,6.59a13.7,13.7,0,0,0,1.57.17A11.17,11.17,0,0,1,244,281c4.42,1.67,7.66.44,11.55-4.38,3.74-4.65,7.44-9.36,11.15-14.07l6.09-7.71c3.69-4.74,7.42-9.45,11.22-14.24l7.36-9.3.93,3.37c1.6,5.88,2.51,137.16,1,144.81ZM137.65,345.09c51.09,10.71,101.7,21.3,152.4,31.89,1.1-15.82.5-115.47-.75-137.37l-2.5,3.16c-3.79,4.78-7.51,9.47-11.2,14.21h0l-6.08,7.72c-3.72,4.71-7.43,9.43-11.18,14.1-3.27,4.05-8,8.33-15.56,5.46a7.93,7.93,0,0,0-2.17-.34,16.77,16.77,0,0,1-2-.23l-32.12-6.6-60-12.3c-2.35-.47-4.74-.77-7.24-1.09l-1.93-.25Z"/><path class="cls-2" d="M300.47,380.86l-.75-154.65,3.11,3.51c1.2,1.36,2.29,2.62,3.31,3.79,2,2.33,3.77,4.36,5.62,6.27l1.23,1.3c8,8.35,15.92,16.71,24,25,6.26,6.42,8,6.74,15.82,2.83,10.47-5.21,20.88-10.51,31.27-15.8l8.86-4.5a10.06,10.06,0,0,1,1.85-.7l2.3-.75.48,1.83c1.5,5.83,2.31,75.91,1,90.34l-.09,1.07-1,.41Q350.91,360,302.9,379.86Zm2.83-145.23.67,140q46.21-19.11,91.18-37.65c1-14.81.44-73.79-.76-86.15l-8.74,4.45c-10.4,5.29-20.81,10.59-31.29,15.81-9.11,4.56-12.65,3.94-19.93-3.53-8.06-8.28-16-16.64-24-25l-1.22-1.28c-1.89-1.95-3.69-4-5.75-6.41Z"/></svg>