<svg id="Calque_1" data-name="Calque 1" xmlns="http://www.w3.org/2000/svg" viewBox="0 0 525.2 484.62"><defs><style>.cls-1{fill:#fbc109;}.cls-2{fill:#636569;stroke:#636569;stroke-miterlimit:10;stroke-width:2.84px;}</style></defs><rect class="cls-1" width="525.2" height="484.62"/><path class="cls-2" d="M211.72,128a31.47,31.47,0,0,0,4,.25,31,31,0,0,0,31-31,31.71,31.71,0,0,0-.64-6.22l-.4-1.91L267.84,89a5,5,0,0,0,4.93-4.94,4.87,4.87,0,0,0-4.85-4.91h-27.2l-.4-.54A31.1,31.1,0,1,0,211.72,128Zm3.89-52a21.18,21.18,0,0,1,.1,42.36,22.44,22.44,0,0,1-2.72-.17A21.18,21.18,0,0,1,215.61,76Z"/><path class="cls-2" d="M438,329.32l-3.1-2.71,4.12-.09c3.12-.06,6.29-.11,9.58-.12a6.48,6.48,0,0,0,5.39-3.06,7.9,7.9,0,0,0,1-6.92c-4.82-15.05-17.33-33.82-49.39-38l6.43-2L484.6,254l-2.88-9.34-9.4,2.9L447.86,169.3l-57.3,17.91-4,1.26c2.65-5.19,3.29-12,3.28-17,0-6.82-1.33-22.86-13.17-24.35a15,15,0,0,0-1.9-.12H364c-20.86,0-27.06,9.37-33.62,19.24C325.85,173,321.21,180,312,184.51l-1.45.7-.69-1.47a17.87,17.87,0,0,0-12.31-10L267.38,167l-24.7-25.06a25.67,25.67,0,0,0-18.3-7.63H205.77a23.42,23.42,0,0,0-23.34,21.22l-10.9,75a27.16,27.16,0,0,0,4.39,18.85l1.64,2.47h-24.5l.78-2.14A18.89,18.89,0,0,0,155,243.4l-.17-77.5a18.48,18.48,0,0,0-18.43-18.35l-77.49.16A18.41,18.41,0,0,0,40.6,166.15l.16,77.48A18.41,18.41,0,0,0,59.19,262H77.32c-.34,1-.64,2-.92,3.19a46.19,46.19,0,0,0-1.31,12.23,25.64,25.64,0,0,0,9.15,19.43,30.58,30.58,0,0,0,2.54,2c-9.2,15.52-16,34.48-19.12,54.92l9.74,1.42c.68-4.28,1.57-8.67,2.77-13.64l3.76-13.13c1.62-4.8,3.36-9.24,5.19-13.28l6-11.29c.9.57,1.81,1.12,2.72,1.67a180.81,180.81,0,0,0,23.69,12.39c2,.83,4,1.53,5.94,2.3a49.91,49.91,0,0,0,6.95,96.5c1,.19,2,.47,3,.6.6.07,1.2,0,1.79.07a7.09,7.09,0,0,0,3.09,1,13,13,0,0,0,1.65.1,50.58,50.58,0,0,0,48.71-38.07l.31-1.19h15.86l146.91-.31.31,1.19a50.37,50.37,0,0,0,42.44,37.46,51.47,51.47,0,0,0,6.45.4A50.4,50.4,0,0,0,438,329.32Zm-41.19-58.41-18.26-58.44,77.33,40.16Zm.42,6.78-.57-.05-1.53-.06v-1.53c0-1.39-.09-2.6-.15-3.9l-2.65.83,3.14-1Zm65.07-29.42.68,2.17-2.16.66Zm-20.86-66.72,19.61,62.74-82.78-43Zm-111.8,2a86,86,0,0,0,8.95-11.85c6.34-9.54,9.83-14.8,25.39-14.84h8.14c3.7,0,7.81,4.64,7.82,14.62,0,5.4-1.16,8.79-2.14,10.67-1.29,2.5-3.12,4-4.87,4l-42.11.1h-3.7Zm46.81,18.26-.76,1.47-.35-1.13Zm-66.19-4.62.38-1.06h7.65l.41.28c23.37,16,35.06,63.43,25,101.58-7.06,26.83-23.29,42.64-45.7,44.53l-.46-3.15a18,18,0,0,0-3.76-35.57h-8.12l-.12-53.8A24.51,24.51,0,0,0,261,225.58l-34.5.08,6.27-42.77,12.45,13a17.92,17.92,0,0,0,9,5.07l35.39,7.93a14.82,14.82,0,0,0,1.62.28h0a18.57,18.57,0,0,0,2.36.14,17.92,17.92,0,0,0,16.67-12.07Zm-76.95,64.37h12.43a4.45,4.45,0,0,1,3.89,4.41l.12,55.87a18,18,0,0,0,15.71,17.8h0a16.28,16.28,0,0,0,2.31.14l26.1-.06H295l.34-.06c.51-.08,1-.17,1.56-.21l.38,3.17c-.66.11-1.31.21-2,.27a11.09,11.09,0,0,1-1.62.15l-58.73.13a43.25,43.25,0,0,1-5.34-.33C218.25,341.42,211,335.3,207.16,328l-2-20v-.18c2.49-8.61,9.3-16.56,21.37-19.23a8.72,8.72,0,0,0,6.82-8.47Zm-41.12-104.5c.72-7.4,6.45-12.83,13.59-12.85l18.61-.05a15.88,15.88,0,0,1,11.28,4.71L262.39,176l33,7.38a8.12,8.12,0,0,1-1.75,16,8.79,8.79,0,0,1-1.77-.18l-35.44-7.95A8.17,8.17,0,0,1,252.3,189l-19.67-20.48a4.74,4.74,0,0,0-8.1,2.6L215.74,231a3.92,3.92,0,0,0,.92,3.15,4,4,0,0,0,3,1.34l41.4-.09A14.71,14.71,0,0,1,275.75,250l.13,63.67h18a8.13,8.13,0,0,1,8.14,8.1h0a8,8,0,0,1-2.36,5.73,8.1,8.1,0,0,1-5.74,2.41l-26.1.05a9.24,9.24,0,0,1-1.05-.06,8.14,8.14,0,0,1-7.09-8l-.14-66.26a3.89,3.89,0,0,0-3.86-3.92h-.08l-57,.13a17.4,17.4,0,0,1-17.48-17.3,18.4,18.4,0,0,1,.18-2.57Zm-133,95.07a8,8,0,0,1-1.09-.07,8.55,8.55,0,0,1-7.46-8.44l-.17-77.5A8.55,8.55,0,0,1,59,157.57l77.5-.17a8.51,8.51,0,0,1,8.54,8.5v0l.17,77.48A8.55,8.55,0,0,1,136.7,252Zm66.14,56.7a179.48,179.48,0,0,1-31-17,16.77,16.77,0,0,1-9.45-14.69c-.15-7.92,1.72-12.79,2.94-15.1l134,.07L221.1,277a145.33,145.33,0,0,0-14.63,8c-12.54,7.78-11.13,23.2-11.06,23.84l1.23,12.24c-21.32,2.38-47-2-71.33-12.34Zm56.16,74.65A41,41,0,1,1,148,326.68c3.08.78,6.16,1.51,9.24,2.11.85.29,1.7.52,2.54.88a41,41,0,0,1,21.77,53.74l0,.07Zm173.14-15.54-.36,1.1H353.1l-159.44.33c.05-1.06.09-2.12.06-3.19a50.26,50.26,0,0,0-15.67-35.06,122.29,122.29,0,0,0,16.13-.19c1.12-.09,2.26-.14,3.37-.27,4.75,10.64,14.66,19.87,30.64,21.89a53,53,0,0,0,6.78.4l58.72-.13c21,0,38.12-9.66,49.51-27.84,9.1-14.55,14.09-34.43,14-56-.06-27.59-8.11-53.87-21.52-70.28l-2.12-2.6h26.13l.16,1.42c2.44,21.54,9.33,33.2,14.86,42.58l.92,1.55c1.35,2.24,2.68,4.47,3.92,7l5.32,17A133.94,133.94,0,0,1,386.59,287l9.68.45c23.1.91,38.84,9.48,46.64,25.21a3,3,0,0,1-2.63,4.28c-33.56.35-70.63,4.55-85.67,51ZM404.92,408a40.64,40.64,0,0,1-40.56-37.65V370l.1-.31c8.44-25.07,23.71-37.47,51-41.46l.35-.05.33.1A40.64,40.64,0,0,1,404.92,408Z"/><path class="cls-2" d="M150.81,350.66a18.24,18.24,0,1,0,9.67,23.92h0A18.14,18.14,0,0,0,151,350.74ZM152.08,371a9.12,9.12,0,1,1-7.26-12.63,9.31,9.31,0,0,1,2.43.66,9.13,9.13,0,0,1,4.84,12v0Z"/><path class="cls-2" d="M407.16,349.41a16.33,16.33,0,0,0-2.32-.14,18,18,0,0,0-2.22,35.81h0a16.05,16.05,0,0,0,2.3.14,18,18,0,0,0,2.24-35.81ZM410.63,373a8.07,8.07,0,0,1-5.73,2.4,8.39,8.39,0,0,1-1-.06,8.22,8.22,0,1,1,6.73-2.34Z"/><polygon class="cls-2" points="245.54 263.2 245.52 263.32 245.53 263.32 245.54 263.2"/></svg>