<svg id="Calque_1" data-name="Calque 1" xmlns="http://www.w3.org/2000/svg" viewBox="0 0 525.2 484.62"><defs><style>.cls-1{fill:#fbc109;}.cls-2{fill:#636569;}</style></defs><rect class="cls-1" width="525.2" height="484.62"/><path class="cls-2" d="M479.44,191.51l-133.9-122a12.79,12.79,0,0,0-7.83-3.32,11.53,11.53,0,0,0-1.44,0,12.8,12.8,0,0,0-8.89,4.23L141.63,277a12.81,12.81,0,0,0,1,18.08h0L276.44,415.22a12.69,12.69,0,0,0,7.74,3.25H285a12.77,12.77,0,0,0,9.48-4.2L480.31,209.59A12.84,12.84,0,0,0,479.44,191.51ZM351.36,199l-5.6-107.24L457.35,193.5Zm-12.79,68.6-61.29,3.19h-.13L163.86,276.7,329.42,92.55Zm-68.66,19.95,5.46,104.73L164.78,293.06Zm16.32-.85,61.35-3.2a8.2,8.2,0,0,0,5.64-2.69,8.05,8.05,0,0,0,2.1-5.91l-3.11-59.58L458,209.83,291.77,393Z"/><path class="cls-2" d="M110.68,167.05h93.24a8.2,8.2,0,0,0,5.73-14,8,8,0,0,0-5.73-2.33H111.2a8.17,8.17,0,0,0-.52,16.33Z"/><path class="cls-2" d="M110.3,266.75a8.18,8.18,0,0,0,.26-16.35l-58-1.82a8.31,8.31,0,0,0-8.44,7.94,8.17,8.17,0,0,0,7.67,8.4L110,266.74Z"/><path class="cls-2" d="M146.19,351.79l-59.75-1.72a8.17,8.17,0,0,0-.74,16.33h0l60,1.73h.3a8.18,8.18,0,0,0,8.17-7.92A8.28,8.28,0,0,0,146.19,351.79Z"/></svg>