<svg id="Calque_1" data-name="Calque 1" xmlns="http://www.w3.org/2000/svg" viewBox="0 0 525.2 484.62"><defs><style>.cls-1{fill:#fbc109;}.cls-2{fill:#636362;}</style></defs><rect class="cls-1" width="525.2" height="484.62"/><path class="cls-2" d="M453.2,182.78c-.07-.27-.13-.64-.26-.66a7.85,7.85,0,0,0-.54-1.31,8.7,8.7,0,0,0-.69-.91,3.89,3.89,0,0,0-.6-.74q-.32-.28-.66-.54l-129.18-76a8.09,8.09,0,0,0-8.33.16L260.5,136.42l-9.15,5.86a6.49,6.49,0,0,0-.93.73l-.74.64a2.77,2.77,0,0,0-.41.6,6.48,6.48,0,0,0-.67.89,7.1,7.1,0,0,0-.5,1.17l-.27.71a8.19,8.19,0,0,0-.21,1.39l-.08,100.69a7.93,7.93,0,0,0,3.78,6.79l125.33,78.94a6.84,6.84,0,0,0,1.24.54l.59.22a7.64,7.64,0,0,0,4.24,0l.75-.28c.37-.12.73-.27.66-.28l65.53-40.35a8,8,0,0,0,3.82-6.84v-103A7.93,7.93,0,0,0,453.2,182.78ZM372.57,226v87.27l-109-68.65V163Zm57-41.23L380.64,212.1,271.1,148.8,317.36,119Zm7.88,14.08V283.3l-48.8,30.15V226l45.59-25.25Z"/><path class="cls-2" d="M85,147.55V283.68a8.08,8.08,0,0,0,3.81,6.89L259,397.76c.05.05.15.07.18.1a1,1,0,0,0,.2.15,9.51,9.51,0,0,0,1.15.46c.23.09.44.19.69.27a7.93,7.93,0,0,0,4.25,0c.21-.06.41-.17.59-.23a7.62,7.62,0,0,0,1.22-.5.66.66,0,0,0,.17-.12.27.27,0,0,0,.16-.06l88.28-54.49a8.07,8.07,0,0,0,3.9-6.93V196.21a8.42,8.42,0,0,0-.31-2.12c-.08-.24-.17-.49-.27-.72a8.82,8.82,0,0,0-.53-1.22,9.1,9.1,0,0,0-.61-.78,5.84,5.84,0,0,0-.67-.9,9.58,9.58,0,0,0-.95-.73c-.24-.19-.46-.4-.7-.56h-.06L181.21,86.71a8.09,8.09,0,0,0-8.43.13L88.86,140.63a6.8,6.8,0,0,0-.82.69,7.85,7.85,0,0,0-.73.56c-.25.29-.46.63-.69.94a4.25,4.25,0,0,0-.53.73,8.81,8.81,0,0,0-.46,1.1,6.92,6.92,0,0,0-.33.86,8.35,8.35,0,0,0-.18,1.22C85.12,147,85,147.26,85,147.55Zm88.52,37.07-26.84-15.54L109,147.26l68.25-44,65,38.14,25,14.68,68.33,40.1-72.21,40.35-64.62-37.39Zm170,147.21-72,44.49V250.65l63.39-35.13,8.61-5.07ZM101.35,161.67l39.83,23,24.29,14.07,25.6,14.81,64.16,37.09V376.12L101.35,279.18Z"/></svg>