<svg id="Calque_1" data-name="Calque 1" xmlns="http://www.w3.org/2000/svg" viewBox="0 0 525.2 484.62"><defs><style>.cls-1{fill:#fbc109;}.cls-2,.cls-3,.cls-4,.cls-5{fill:none;stroke:#636569;stroke-linecap:round;stroke-linejoin:round;}.cls-2,.cls-3,.cls-4{stroke-width:4.58px;}.cls-3{stroke-dasharray:10.67 10.67;}.cls-4{stroke-dasharray:11.53 11.53;}.cls-5{stroke-width:8.58px;}.cls-6{fill:#636569;}</style></defs><rect class="cls-1" width="525.2" height="484.62"/><line class="cls-2" x1="426.45" y1="205.43" x2="430.94" y2="202.54"/><line class="cls-3" x1="439.91" y1="196.76" x2="471.29" y2="176.54"/><line class="cls-2" x1="475.77" y1="173.65" x2="480.26" y2="170.75"/><line class="cls-2" x1="426.45" y1="270.32" x2="430.97" y2="267.47"/><line class="cls-4" x1="440.72" y1="261.32" x2="474.84" y2="239.8"/><line class="cls-2" x1="479.71" y1="236.72" x2="484.23" y2="233.88"/><line class="cls-5" x1="483.05" y1="181.34" x2="483.05" y2="221.99"/><polygon class="cls-6" points="468.5 198.44 483.05 183.88 497.6 198.44 497.6 186.08 483.05 171.53 468.5 186.08 468.5 198.44"/><polygon class="cls-6" points="468.5 204.9 483.05 219.46 497.6 204.9 497.6 217.25 483.05 231.8 468.5 217.25 468.5 204.9"/><path class="cls-6" d="M429.24,205.56l-.14-.71-.1-.18-.35-1a2.59,2.59,0,0,0-.42-.65l-.1-.11-.33-.47-.83-.81h0l-.59-.51L240.93,85.1a6.33,6.33,0,0,0-3.38-1,6.48,6.48,0,0,0-3.24.87L45.49,195.85v.44l-1.79.55a11.1,11.1,0,0,1-.85.83h0l-.52.7-.34.43a3.82,3.82,0,0,0-.4.87l-.05.15-.27.58a5.81,5.81,0,0,0-.26,1.71v64.74a6.57,6.57,0,0,0,3.07,5.48l190.14,116.8.36.18h0l.37.17.83.3a6.38,6.38,0,0,0,1.74.27,6.21,6.21,0,0,0,1.66-.23h.08l1-.39.12-.07L241,389H241a.91.91,0,0,1,.26-.13L426.37,272.28a6.35,6.35,0,0,0,3-5.4V206.56a4.41,4.41,0,0,1-.09-.89ZM165.36,140.33l70.76-41.59,1.31-.77,1.28.8L407.07,204.15l3.52,2.2L407,208.43,365.91,232.2l-29.27,16.94-1.29.74-1.27-.78L165.31,144.6l-3.51-2.17ZM231.19,318.9v53.37l-3.8-2.33L55,264.05l-1.19-.73v-50l3.76,2.2L66.9,221l163,95.73,1.24.72Zm7.64-13.19-1.26.73-1.25-.74L63.68,204.29,60,202.14,63.68,200l74.44-43.69,1.3-.76,1.28.79L309.31,260.7l3.54,2.2-3.61,2.1ZM416.56,222v41.41l-1.16.74L247.77,369.72l-3.82,2.4V317.49l1.25-.72,69.86-40.41,3.75-2.16v14c0,4,2,6.35,5.48,6.35a11.63,11.63,0,0,0,4.94-1.26c6.77-3.21,12.5-11.6,12.5-18.31v-14l1.25-.73,26.49-15.32,43.35-25.08,3.74-2.17Z"/></svg>