<svg id="Calque_1" data-name="Calque 1" xmlns="http://www.w3.org/2000/svg" viewBox="0 0 525.2 484.62"><defs><style>.cls-1{fill:#fbc109;}.cls-2{fill:#636569;}</style></defs><rect class="cls-1" width="525.2" height="484.62"/><path class="cls-2" d="M210.14,44.09h0C230.84,47,244.94,58.28,252,77.74c13.83,37.92-9.55,60.14-10.48,61A12.56,12.56,0,0,0,238.35,153l32.33,76.3a12.54,12.54,0,0,0,9.84,7.54c.42.06.85.1,1.28.12,1.88.07,3.94.11,6.11.16a198.57,198.57,0,0,1,22.61,1.38c11.59,1.61,18.9,4.79,21.66,9.46,9.11,15.36,29.89,53,35.15,62.62-.19,6.06-5.55,34.69-84.92,62.46-29.91,10.45-55.38,14.32-75.72,11.5-22.9-3.17-32.35-14-35.09-18-.74-10.69-3.38-48.35-4.78-68.68-.72-10.3,20.82-28,36.62-36.74a12.58,12.58,0,0,0,6.21-13.6l-17.17-81a12.59,12.59,0,0,0-8.85-9.48c-.33-.09-32.75-9.65-42.36-39.68-8.34-26,7.16-61.62,30.15-69.33,12.55-4.2,26.66-5.65,38.72-4m1.72-12.46c-15.59-2.16-31.65.24-44.43,4.52C137,46.36,119.14,89.57,129.29,121.24s41,45.11,50.89,47.93l17.17,81s-44.71,24.75-43.08,48.6,5,71.59,5,71.59S169.15,392,205,397c19.06,2.64,45.44.54,81.59-12.08,104.05-36.42,93-78.13,93-78.13s-25.94-47.27-36.6-65.23c-5.74-9.69-18-13.73-30.74-15.5-10.79-1.5-22-1.37-30-1.66l-32.33-76.29s31-27.73,13.89-74.67c-9.9-27.22-30.47-38.83-51.95-41.81Z"/><path class="cls-2" d="M259.47,451.86c-18.32-2.53-36.11-7.71-51.53-16.33-18.93-10.51-27.38-27.11-22-43.33a6.28,6.28,0,0,1,12,3.68c0,.08,0,.16-.08.24-3.39,10.29,2.67,20.91,16.2,28.42,46.62,26.06,119.47,17.42,152,1.48,14.8-7.24,21.84-16.48,19.81-26-2.77-13-22.65-27.48-54-28.62a6.28,6.28,0,0,1,.45-12.56c33.71,1.2,61.37,17.43,65.88,38.57,1.55,7.33,2.08,25.88-26.6,39.91C346.59,449.56,301.66,457.71,259.47,451.86Z"/><path class="cls-2" d="M165.57,376.5a6,6,0,0,1-5.09-5.15c-5.21-41.87,48.2-65.43,88.82-79.5,68.93-23.9,115-20.2,126.51,10.17a5.94,5.94,0,1,1-11.12,4.19c-12.95-34.29-88.61-11.07-111.49-3.13-57.58,19.93-84,41.79-80.91,66.81a6,6,0,0,1-5.17,6.63A6.69,6.69,0,0,1,165.57,376.5Z"/></svg>