<svg id="Calque_1" data-name="Calque 1" xmlns="http://www.w3.org/2000/svg" viewBox="0 0 525.2 484.62"><defs><style>.cls-1{fill:#fbc109;}.cls-2{fill:#636569;}.cls-3{fill:none;stroke:#636569;stroke-miterlimit:10;stroke-width:17.07px;}</style></defs><rect class="cls-1" width="525.2" height="484.62"/><path class="cls-2" d="M340.07,304.68l21.76,15.93,6-8.09c2.35-3.24,2.81-6.45,1.46-9.7-.93-2.39-2.65-3.63-6.47-6.36s-5.44-4-7.95-4.16c-3.52-.35-6.45,1.06-8.87,4.34Zm8.71-1.84,1.71-2.34a3.66,3.66,0,0,1,3.09-1.75c1,.08,1.69.31,5.35,3s4.13,3.37,4.49,4.18a3.53,3.53,0,0,1-.69,3.45L361,311.76Z"/><path class="cls-2" d="M281.51,204.07,242.4,204a6.38,6.38,0,0,0-6.39,6.33v3.34a6.29,6.29,0,0,0,6.43,6.41h39a6.7,6.7,0,0,0,4.56-1.87,6.58,6.58,0,0,0,1.93-4.58V210.3A6.44,6.44,0,0,0,281.51,204.07Z"/><path class="cls-2" d="M211.82,252.9a6.18,6.18,0,0,0-1.87,4.53v3.25a6.2,6.2,0,0,0,2.85,5.39,6.11,6.11,0,0,0,3.55,1h91.27a6.32,6.32,0,0,0,6.38-6.26v-3.4a6.55,6.55,0,0,0-6.4-6.42H216.36A6.17,6.17,0,0,0,211.82,252.9Z"/><polygon class="cls-2" points="392.86 230.19 390.81 211.91 384.93 212.62 386.28 224.19 381.58 224.76 380.39 214.92 374.57 215.59 375.63 225.53 371.24 226.06 369.84 214.38 363.99 215.03 366.1 233.26 392.86 230.19"/><polygon class="cls-2" points="160.44 234.07 146.97 233.27 161.01 225.4 161.29 219.7 134.4 218.13 134 224.7 147.55 225.53 133.54 233.33 133.22 239.1 160.11 240.67 160.44 234.07"/><path class="cls-2" d="M183.05,150.85a8.43,8.43,0,0,0,9.71-.49,110.89,110.89,0,0,1,130.85-6.47,8.27,8.27,0,1,0,9.07-13.84,128.13,128.13,0,0,0-150.27,7.37,8.33,8.33,0,0,0-1.17,11.65A7.65,7.65,0,0,0,183.05,150.85Z"/><polygon class="cls-2" points="365.6 242.87 392.55 243.79 392.75 237.22 365.87 236.24 365.6 242.87"/><path class="cls-2" d="M356.59,278a9.75,9.75,0,0,0-.36,8c1.41,3.69,4.58,5,8.66,7s7.35,3.24,11,1.8a9.48,9.48,0,0,0,5.74-5.61A10,10,0,0,0,382,281c-1.47-3.55-4.53-4.95-8.72-6.83s-7.25-3.28-10.94-1.87A9.83,9.83,0,0,0,356.59,278Zm5.38,2.4a3.74,3.74,0,0,1,2.18-2c1-.23,1.94-.25,6.42,1.84s5.16,2.72,5.65,3.6a3.24,3.24,0,0,1,0,2.91,3.14,3.14,0,0,1-2.15,1.91c-1,.23-1.91.17-6.48-1.79s-5.13-2.78-5.59-3.65a3.38,3.38,0,0,1,0-2.85Z"/><polygon class="cls-2" points="392.23 251.24 365.87 245.91 364.47 252.46 377.88 255.06 362.84 260.92 361.73 266.61 388.18 271.9 389.45 265.36 376.1 262.79 391.12 256.92 392.23 251.24"/><path class="cls-2" d="M294.23,334l-.5,28.68,6.52-2.2-.05-4.34,7.84-2.63,2.49,3.4,6.56-2.27-18-22.31Zm5.9,8.86,4.52,5.94-4.47,1.58Z"/><path class="cls-2" d="M135.1,257.4a10,10,0,0,0,4.14,6.94c3.17,2.2,6.57,1.66,11.08.85s7.88-1.28,10.16-4.45a9.85,9.85,0,0,0,1.71-7.85,10.46,10.46,0,0,0-4.14-6.94c-3.25-2.23-6.61-1.68-11.09-.94s-7.84,1.29-10.12,4.48A9.81,9.81,0,0,0,135.1,257.4Zm6.63-3.81c.65-.72,1.44-1.21,6.36-2.09s5.76-.53,6.64-.07a3.59,3.59,0,0,1,.89,5.21c-.71.78-1.54,1.34-6.39,2.09s-5.77.52-6.68.13a3.58,3.58,0,0,1-1.61-2.45,3.14,3.14,0,0,1,.79-2.82Z"/><polygon class="cls-2" points="331.32 309.25 329.62 301.61 325.28 305.49 328 312.24 331.32 309.25"/><polygon class="cls-2" points="343.99 329.77 340.83 326.16 348.3 319.55 344.38 315.11 336.92 321.81 333.91 318.44 342.64 310.62 338.69 306.25 324.97 318.43 343.06 338.52 356.74 326.25 352.79 321.89 343.99 329.77"/><polygon class="cls-2" points="252.49 348.9 252.22 354.78 264.62 355.28 264.86 349.39 252.49 348.9"/><polygon class="cls-2" points="324.8 343.33 314.08 325.15 308.38 328.54 322.1 351.84 337.6 342.59 334.54 337.53 324.8 343.33"/><polygon class="cls-2" points="165.48 321.67 178.43 334.65 182.57 330.43 174.35 322.15 177.65 318.82 184.74 325.87 188.89 321.74 181.8 314.69 185 311.41 193.26 319.7 197.38 315.56 184.46 302.6 165.48 321.67"/><path class="cls-2" d="M180.29,296.8l-14.92,4.67,9.93-12.14-3.72-5.51.07-.05-2.48-6.15L153.05,284c-2.27.94-4.17.12-5-2s.06-3.81,2.37-4.73l16.08-6.42-2.44-6.12-16.25,6.5c-5.43,2.08-7.26,7.79-5.25,13s7.39,8.09,12.82,5.92l15.85-6.26L154,306l2.77,4.11,27.36-7.57Z"/><polygon class="cls-2" points="213.41 349.35 221.65 329.99 215.54 327.36 204.94 352.2 221.49 359.23 223.75 353.79 213.41 349.35"/><polygon class="cls-2" points="204.79 320.58 199.3 316.88 184.35 339.27 199.26 349.26 202.53 344.25 193.13 338.05 204.79 320.58"/><polygon class="cls-2" points="235.64 356.73 236.64 352.09 246.42 354.12 247.56 348.37 237.81 346.26 238.76 341.83 250.17 344.32 251.41 338.45 233.48 334.74 227.91 361.15 245.88 364.88 247.12 359.09 235.64 356.73"/><path class="cls-2" d="M282.7,355.55c-.25,1.56-.89,3-3.1,3.34a3.44,3.44,0,0,1-2.72-.75c-.72-.73-1.22-1.61-1.88-6.56s-.34-5.81.16-6.68a3.34,3.34,0,0,1,2.44-1.53c2.19-.23,3.22,1,3.85,2.49l6.63-.9c-1.74-5.83-6.15-8-11.22-7.4a9.63,9.63,0,0,0-7,3.88c-2.39,3.14-2,6.49-1.35,11s1,8,4.13,10.35a9.5,9.5,0,0,0,7.82,1.94c5.07-.65,8.78-4,9-10Z"/><path class="cls-3" d="M347.1,108a153.89,153.89,0,0,0-84.4-25.28c-85.13,0-154.34,69.16-154.41,154.31A154.32,154.32,0,1,0,347.1,108Z"/></svg>