<svg id="Calque_1" data-name="Calque 1" xmlns="http://www.w3.org/2000/svg" viewBox="0 0 525.2 484.62"><defs><style>.cls-1{fill:#fbc109;}.cls-2,.cls-3{fill:#636362;}.cls-2,.cls-4{stroke:#636362;}.cls-2{stroke-width:6.41px;}.cls-4{fill:none;stroke-width:6.1px;}</style></defs><rect class="cls-1" width="525.2" height="484.62"/><path class="cls-2" d="M63.34,338.92V145.71A28.28,28.28,0,0,1,91.6,117.44H461.4a28.28,28.28,0,0,1,28.24,28.27V338.92a28.27,28.27,0,0,1-28.24,28.26H91.6A28.27,28.27,0,0,1,63.34,338.92ZM461.4,127.83H91.6a17.91,17.91,0,0,0-17.89,17.88V338.93A17.9,17.9,0,0,0,91.6,356.79H461.4a17.86,17.86,0,0,0,17.83-17.86V145.72a17.86,17.86,0,0,0-17.83-17.88Z"/><path class="cls-3" d="M307.43,218.67h5.83V158.92h-5.83Zm17.54,0h11.69V158.92H325Zm17.51,0h5.84V158.92h-5.84Zm11.7,0H360V158.92h-5.85Zm11.71,0h5.83V158.92h-5.83Zm11.68,0h11.66V158.92H377.57Zm17.52,0h11.69V158.92H395.09Zm23.4,0h5.82V158.92h-5.82Zm11.67,0H436V158.92h-5.85Zm11.69-59.75v59.75h5.83V158.92Z"/><rect class="cls-4" x="119.48" y="262.86" width="153.43" height="69.62"/><rect class="cls-4" x="119.48" y="166.74" width="153.43" height="69.62"/><line class="cls-4" x1="119.43" y1="234.73" x2="272.84" y2="167.98"/><line class="cls-4" x1="272.11" y1="234" x2="119.19" y2="168.46"/></svg>