<svg id="Calque_1" data-name="Calque 1" xmlns="http://www.w3.org/2000/svg" viewBox="0 0 525.2 484.62"><defs><style>.cls-1{fill:#fbc109;}.cls-2,.cls-4{fill:none;stroke:#636362;}.cls-2{stroke-width:11.88px;}.cls-3{fill:#636569;}.cls-4{stroke-width:5.94px;}</style></defs><rect class="cls-1" width="525.2" height="484.62"/><polygon class="cls-2" points="199.75 197.22 269.02 237.8 321.48 209.1 250.96 167.53 199.75 197.22"/><path class="cls-3" d="M446.53,174.43a9.9,9.9,0,0,0-.17-1.2,7.67,7.67,0,0,0-.32-.84c-.15-.36-.27-.72-.46-1.08a6.32,6.32,0,0,0-.54-.71,10.16,10.16,0,0,0-.69-.93c-.24-.2-.48-.37-.71-.55a9,9,0,0,0-.83-.67L273.08,64a8.21,8.21,0,0,0-8.42-.11l-174,100.42H90.6a7.15,7.15,0,0,0-.7.53,8.9,8.9,0,0,0-1,.74,6.29,6.29,0,0,0-.67.87,4.45,4.45,0,0,0-1.11,2,6.07,6.07,0,0,0-.29.7,7.83,7.83,0,0,0-.29,2.1V308.72a8,8,0,0,0,3.89,6.83L264.5,420.67a.17.17,0,0,1,.16.06.55.55,0,0,0,.17.13,7.29,7.29,0,0,0,1.2.47,3.56,3.56,0,0,0,.62.23,7.58,7.58,0,0,0,2.11.3,8,8,0,0,0,2.12-.3,4.59,4.59,0,0,0,.7-.27,7.94,7.94,0,0,0,1.14-.45c.07,0,.12-.11.19-.14s.12,0,.19-.08L442.82,315.49a7.9,7.9,0,0,0,3.81-6.77V175.23C446.63,175,446.55,174.7,446.53,174.43Zm-113.3,51.43-64.45,36.67L110.72,171.26l93.08-53.72L268.63,80.1,422.74,175l-37.63,21.39ZM102.78,185.21l8.58,5,149.26,86.17v123.2L102.78,304.25Zm263.63,40.26,24.23-13.79,39.73-22.6V304.32L276.89,399.38v-123l64-36.37"/><line class="cls-4" x1="250.22" y1="164.56" x2="269.02" y2="237.8"/><line class="cls-4" x1="199.74" y1="197.22" x2="321.48" y2="209.1"/></svg>