<svg id="Calque_1" data-name="Calque 1" xmlns="http://www.w3.org/2000/svg" viewBox="0 0 525.2 484.62"><defs><style>.cls-1{fill:#fbc109;}.cls-2{fill:#636569;}</style></defs><rect class="cls-1" width="525.2" height="484.62"/><path class="cls-2" d="M403.23,385.07l-1.72-.12a14.8,14.8,0,0,1-4-.85A14.38,14.38,0,0,1,388,370.59a14.2,14.2,0,0,1,13.71-14.16l1.73-.09.15-22.51-1.73-.12a14.4,14.4,0,0,1-4.1-.85A14.25,14.25,0,0,1,402,305.21l1.74-.09.13-22.49-1.73-.12a15.45,15.45,0,0,1-4.09-.86,14.12,14.12,0,0,1-9.45-13.49A14.38,14.38,0,0,1,402.32,254l1.74-.09.14-22.51-1.73-.12a15.67,15.67,0,0,1-4.12-.86,14.12,14.12,0,0,1-9.41-13.5,14.34,14.34,0,0,1,13.71-14.13l1.73-.08.14-22.38-1.73-.11a15.17,15.17,0,0,1-4-.84,14.48,14.48,0,0,1-9.52-13.65,14.3,14.3,0,0,1,13.73-14l1.73-.09.14-22.51-1.74-.11a15,15,0,0,1-4.13-.85,14.25,14.25,0,0,1,4.3-27.64l1.74-.09.15-22.52-1.73-.11A15.19,15.19,0,0,1,394,73.68,14.28,14.28,0,0,1,390,64V62.24l-17.87-.11L372,63.9a14.31,14.31,0,0,1-14.37,13.75,13.9,13.9,0,0,1-4.73-.83,14.39,14.39,0,0,1-9.48-13.1l0-1.72-17.75-.11-.09,1.76a14.32,14.32,0,0,1-28.63-.19l-.06-1.76L279,61.55l-.09,1.75a14.32,14.32,0,0,1-28.63-.18l-.07-1.76-17.71-.11L232.43,63a14.4,14.4,0,0,1-28.77-.18l-.06-1.77-17.7,0-.08,1.76a14.33,14.33,0,0,1-28.65-.18l-.06-1.76-17.73-.12-.09,1.76A14.4,14.4,0,0,1,135,72.1a13.62,13.62,0,0,1-10.06,4.1,3.47,3.47,0,0,0-.85-.17l-2-.15L122,98.62l1.78.06a1.74,1.74,0,0,0,.9-.16,14.51,14.51,0,0,1,14.46,14.53,14.67,14.67,0,0,1-14.57,14.35,2.8,2.8,0,0,0-.76-.17l-2-.19-.14,22.76,1.91-.05a2.31,2.31,0,0,0,.78-.16,14.27,14.27,0,0,1,4.8.85,14.64,14.64,0,0,1,9.65,13.84,14.47,14.47,0,0,1-14.63,14.31h0a3.53,3.53,0,0,0-.56-.14l-2.12-.34-.14,22.81,1.8.05a1.68,1.68,0,0,0,.88-.17,14.34,14.34,0,0,1,4.81.86,14.54,14.54,0,0,1,9.66,13.67,14.29,14.29,0,0,1-4.34,10.21A14.5,14.5,0,0,1,124,229.68a3.36,3.36,0,0,0-.94-.2h-1.88L121,252.55l2.15-.35a2,2,0,0,0,.53-.16,14.73,14.73,0,0,1,4.91.88,14.49,14.49,0,0,1,9.56,13.65,14.24,14.24,0,0,1-4.34,10.19,14.42,14.42,0,0,1-10.16,4.17,3.11,3.11,0,0,0-1-.19h-1.81l-.15,22.68h1.88a1.49,1.49,0,0,0,.8-.17,14.53,14.53,0,0,1,14.47,14.53A14.23,14.23,0,0,1,133.48,328a14.47,14.47,0,0,1-10.21,4.14,3.09,3.09,0,0,0-1-.17H120.5l-.16,22.93,2.07-.25a2.73,2.73,0,0,0,.63-.14,14.41,14.41,0,0,1-.1,28.82,3,3,0,0,0-.94-.17h-1.83l-.17,22.9,2-.06a14.22,14.22,0,0,1,15.18,13.17c0,.28,0,.55,0,.83l-.16,2.4,17.87.11v-1.88c0-.28-.07-.49-.07-.43a14.44,14.44,0,0,1,28.87.06l-.17,2.43,18.06.12-.06-1.91a2.35,2.35,0,0,0-.1-.59A14.47,14.47,0,0,1,216,406.13a14,14,0,0,1,4.7.84,14.62,14.62,0,0,1,9.58,13.72l-.56,2.27,18.87.12-.58-2.3-.08-.24a14.45,14.45,0,0,1,28.9.22l-.63,2.5,18.41.11v-1.82a2.13,2.13,0,0,0-.08-.66,14.48,14.48,0,0,1,14.54-14.17,14,14,0,0,1,4.71.84,14.77,14.77,0,0,1,9.64,13.51l-.08,2.49,17.73.1v-1.8a1.91,1.91,0,0,0-.1-.71A14.63,14.63,0,0,1,355.57,407a14.1,14.1,0,0,1,4.76.86,14.51,14.51,0,0,1,9.57,13.52l-.14,2.47,17.82.11.11-1.74a1.84,1.84,0,0,0-.05-.57,14.32,14.32,0,0,1,4.27-10.06,14.09,14.09,0,0,1,9.44-3.8l1.75-.08Zm-71,24a26.9,26.9,0,0,0-23.12-14.18,26.13,26.13,0,0,0-18.69,7.65,26.84,26.84,0,0,0-4.72,6.34,26.27,26.27,0,0,0-41.91-6.64,26.69,26.69,0,0,0-4.68,6.24A26.86,26.86,0,0,0,216,394.28a26.5,26.5,0,0,0-23.42,14A26.27,26.27,0,0,0,146,408a26,26,0,0,0-4.69-6.29,23.79,23.79,0,0,0-9.19-5.94l-.2-.07v-2a26.72,26.72,0,0,0,9.51-6,26,26,0,0,0,7.88-18.49,26.36,26.36,0,0,0-17.08-24.77v-2a26.25,26.25,0,0,0,.32-49.31V291.2a26.51,26.51,0,0,0,9.48-6,26.08,26.08,0,0,0,8-18.55,26.35,26.35,0,0,0-17.09-24.76V240a26.23,26.23,0,0,0,.32-49.29v-1.77a26.2,26.2,0,0,0,17.39-24.53,26.53,26.53,0,0,0-17.07-24.91v-1.79a26.76,26.76,0,0,0,9.52-6,26.18,26.18,0,0,0-9.2-43.28V86.5a25.58,25.58,0,0,0,9.42-6,26,26,0,0,0,4.86-6.5,26.41,26.41,0,0,0,23.19,14.35,25.94,25.94,0,0,0,23.34-14,26.24,26.24,0,0,0,46.6.31,26.14,26.14,0,0,0,46.55.15,26.4,26.4,0,0,0,23.25,14.47A26,26,0,0,0,334.41,75.2a26.13,26.13,0,0,0,46.53.2,24.49,24.49,0,0,0,12.32,11.84V90.9a26,26,0,0,0-15.51,23.66A26.32,26.32,0,0,0,393,138.44v3.67a25.84,25.84,0,0,0-15.51,23.53,26.48,26.48,0,0,0,15.21,24v3.58a26,26,0,0,0-.29,47.51v3.7a26.06,26.06,0,0,0-15.51,23.68A26.32,26.32,0,0,0,392,291.94v3.7a26,26,0,0,0-15.51,23.64,26.32,26.32,0,0,0,15.21,23.88v3.7a25.93,25.93,0,0,0-15.51,23.65,26.35,26.35,0,0,0,15.21,23.85V398a24.14,24.14,0,0,0-7.73,5.12,26,26,0,0,0-4.72,6.36,26.76,26.76,0,0,0-23.23-14.37,26.32,26.32,0,0,0-23.45,13.9Z"/><path class="cls-2" d="M367.34,370.69,369,115.29a10,10,0,0,0-6.59-9.47,9.81,9.81,0,0,0-3.35-.59L167.86,104a10,10,0,0,0-10.07,9.93V114l-1.61,255.4a10,10,0,0,0,2.89,7.08,10.18,10.18,0,0,0,3.71,2.38,9.82,9.82,0,0,0,3.35.6l191.13,1.2a10,10,0,0,0,10.08-9.92h0Zm-11.84-1.93L168,367.58l1.59-251.7,187.47,1.18Z"/></svg>