<svg id="Calque_1" data-name="Calque 1" xmlns="http://www.w3.org/2000/svg" viewBox="0 0 525.21 484.62"><defs><style>.cls-1{fill:#fbc109;}.cls-2{fill:#636569;}</style></defs><rect class="cls-1" width="525.21" height="484.62"/><path class="cls-2" d="M397.37,124.46a13.92,13.92,0,0,1,0-26.3c2.53-.91,4.3-4.61,4.3-7.37a6.47,6.47,0,0,0-6.46-6.47H380.28a6.4,6.4,0,0,0-6.07,4.29,13.94,13.94,0,0,1-26.34,0,6.48,6.48,0,0,0-6.11-4.33H325.58a6.45,6.45,0,0,0-6.08,4.3,13.91,13.91,0,0,1-26.3,0,6.53,6.53,0,0,0-6.13-4.32H270.89a6.46,6.46,0,0,0-6.08,4.3,13.92,13.92,0,0,1-26.32,0,6.5,6.5,0,0,0-6.1-4.32H216.2a6.46,6.46,0,0,0-6.08,4.3,13.92,13.92,0,0,1-26.31,0,6.48,6.48,0,0,0-6.11-4.33H162.77c-3.65,0-6.47,4.18-6.47,7.76a6.49,6.49,0,0,0,4.31,6.08,13.92,13.92,0,0,1,0,26.29,6.47,6.47,0,0,0-4.33,6.1v16.2a6.42,6.42,0,0,0,4.31,6.09A14.05,14.05,0,0,1,170,166a6.5,6.5,0,0,0,13,0,27.12,27.12,0,0,0-12.47-22.65l-1.21-.77v-7.85l1.21-.78A27,27,0,0,0,183,111.32v-4l3.64,1.48A26.21,26.21,0,0,0,197,111a27.17,27.17,0,0,0,22.6-12.51l.78-1.2h7.84l.77,1.2a26.81,26.81,0,0,0,45.3,0l.78-1.2h7.83l.77,1.2a26.81,26.81,0,0,0,45.31,0l.77-1.2h7.83l.78,1.19c6.9,10.76,21.45,15.27,33.06,10.36l3.64-1.52v3.94A27.05,27.05,0,0,0,387.51,134l1.22.78v7.85l-1.22.77a26.85,26.85,0,0,0,0,45.33l1.21.77v7.78l-1.22.78a26.82,26.82,0,0,0,0,45.3l1.21.76V252l-1.21.77a26.85,26.85,0,0,0,0,45.34l1.21.77v7.83l-1.21.77a26.83,26.83,0,0,0,0,45.32l1.21.77v7.85l-1.22.76A27.17,27.17,0,0,0,375,384.8v3.95l-3.64-1.48c-11.59-4.92-26.12-.37-33,10.36l-.77,1.21h-7.85l-.77-1.21a26.84,26.84,0,0,0-45.34,0l-.77,1.2h-7.83l-.77-1.21a26.83,26.83,0,0,0-45.33,0l-.77,1.2h-7.8l-.77-1.2c-6.91-10.75-21.37-15.29-33.07-10.37l-3.64,1.54v-4a27.17,27.17,0,0,0-12.47-22.72l-1.21-.76v-12a6.47,6.47,0,1,0-12.94,0v16.17a6.41,6.41,0,0,0,4.28,6.07,13.93,13.93,0,0,1,0,26.32c-2.55.91-4.32,4.61-4.32,7.36a6.47,6.47,0,0,0,6.47,6.47h15a6.41,6.41,0,0,0,6.07-4.27,13.93,13.93,0,0,1,26.33,0,6.5,6.5,0,0,0,6.1,4.31h16.19a6.44,6.44,0,0,0,6.07-4.29,13.93,13.93,0,0,1,26.33,0,6.5,6.5,0,0,0,6.1,4.31h16.18a6.43,6.43,0,0,0,6.08-4.28,13.92,13.92,0,0,1,26.32,0,6.52,6.52,0,0,0,6.11,4.31h16.18a6.45,6.45,0,0,0,6.1-4.29,13.92,13.92,0,0,1,26.31,0,6.48,6.48,0,0,0,6.11,4.31h14.93c3.63,0,6.46-4.15,6.46-7.73a6.5,6.5,0,0,0-4.31-6.1,13.93,13.93,0,0,1,0-26.3,6.44,6.44,0,0,0,4.33-6.09V349.35a6.45,6.45,0,0,0-4.28-6.12,13.91,13.91,0,0,1,0-26.3,6.53,6.53,0,0,0,4.3-6.12V294.63a6.52,6.52,0,0,0-4.32-6.11,13.92,13.92,0,0,1,0-26.29,6.43,6.43,0,0,0,4.32-6.1v-16.2a6.5,6.5,0,0,0-4.3-6.09,13.91,13.91,0,0,1,0-26.29,6.53,6.53,0,0,0,4.29-6.11V185.25a6.42,6.42,0,0,0-4.29-6.08,13.92,13.92,0,0,1,0-26.31,6.48,6.48,0,0,0,4.31-6.11v-16.2A6.46,6.46,0,0,0,397.37,124.46Z"/><path class="cls-2" d="M210.26,323.23a6.48,6.48,0,0,0-12.95,0v41a6.47,6.47,0,0,0,6.47,6.47H354.19a6.47,6.47,0,0,0,6.46-6.47V131.82a6.47,6.47,0,0,0-6.46-6.47H203.78a6.47,6.47,0,0,0-6.47,6.47h0v27.34a6.48,6.48,0,1,0,12.95.51,4.34,4.34,0,0,0,0-.51V138.27H347.71V357.76H210.26Z"/><path class="cls-2" d="M80.74,193c13.5,0,20.07,5.6,27.66,12.1,8.32,7.15,17.74,15.26,36.1,15.26s27.82-8.1,36.13-15.24c7.61-6.51,14.16-12.12,27.7-12.12s20.09,5.62,27.7,12.12c7.91,6.79,17.74,15.24,36.12,15.24a6.5,6.5,0,0,0,0-13c-13.55,0-20.12-5.63-27.72-12.15-8.76-7.5-17.79-15.21-36.1-15.21s-27.39,7.75-36.13,15.24c-7.59,6.51-14.13,12.12-27.7,12.12s-20.08-5.61-27.67-12.11C108.11,187.77,99.1,180,80.74,180a6.5,6.5,0,0,0,0,13Z"/><path class="cls-2" d="M80.74,247.66c13.56,0,20.1,5.62,27.67,12.13,8.71,7.48,17.73,15.23,36.09,15.23s28.24-8.45,36.11-15.23c7.59-6.51,14.15-12.13,27.72-12.13s20.11,5.62,27.7,12.13c7.9,6.78,17.71,15.23,36.12,15.23a6.48,6.48,0,0,0,.51-12.95h-.51c-13.56,0-20.11-5.62-27.7-12.13-8.75-7.49-17.78-15.21-36.12-15.21s-28.22,8.44-36.11,15.22c-7.62,6.51-14.18,12.12-27.72,12.12s-20.09-5.61-27.67-12.11c-8.72-7.5-17.73-15.23-36.09-15.23a6.47,6.47,0,1,0-.51,12.93Z"/><path class="cls-2" d="M236.07,314.53c8.73,7.47,17.75,15.19,36.08,15.19a6.5,6.5,0,0,0,0-13c-13.55,0-20.12-5.63-27.72-12.16-8.74-7.47-17.76-15.18-36.1-15.18s-27.4,7.73-36.14,15.22c-7.6,6.51-14.15,12.12-27.69,12.12s-20.07-5.61-27.66-12.12c-8.74-7.49-17.76-15.22-36.1-15.22a6.47,6.47,0,0,0,0,12.94c13.5,0,20.09,5.63,27.7,12.13,8.73,7.5,17.75,15.23,36.06,15.23s27.4-7.75,36.13-15.23c7.59-6.51,14.14-12.13,27.7-12.13S228.46,308,236.07,314.53Z"/></svg>