<svg id="Calque_1" data-name="Calque 1" xmlns="http://www.w3.org/2000/svg" viewBox="0 0 525.21 484.62"><defs><style>.cls-1{fill:#fbc109;}.cls-2,.cls-3,.cls-4,.cls-5{fill:none;stroke:#636569;stroke-linecap:round;stroke-linejoin:round;}.cls-2{stroke-width:12.8px;}.cls-3,.cls-4{stroke-width:4.58px;}.cls-4{stroke-dasharray:10.27 10.27;}.cls-5{stroke-width:7.63px;}.cls-6{fill:#636569;}</style></defs><rect class="cls-1" width="525.21" height="484.62"/><polygon class="cls-2" points="432.08 240.96 109.26 240.96 26.54 162.55 348.77 161.89 432.08 240.96"/><path class="cls-2" d="M348.77,161.89c-1.41,0-82.36,79.07-82.36,79.07L26.54,162.55"/><line class="cls-2" x1="161.45" y1="207.07" x2="109.26" y2="240.96"/><line class="cls-2" x1="305.94" y1="202.36" x2="432.08" y2="240.96"/><polyline class="cls-2" points="24.97 162.74 24.97 234.37 106.86 316.26"/><polyline class="cls-2" points="432.31 241.66 432.31 316.26 108.04 316.26 108.04 243.31"/><line class="cls-3" x1="438.22" y1="241.13" x2="443.56" y2="241.13"/><line class="cls-4" x1="453.83" y1="241.13" x2="489.77" y2="241.13"/><line class="cls-3" x1="494.9" y1="241.13" x2="500.24" y2="241.13"/><line class="cls-3" x1="438.22" y1="316.38" x2="443.56" y2="316.38"/><line class="cls-4" x1="453.83" y1="316.38" x2="489.77" y2="316.38"/><line class="cls-3" x1="494.9" y1="316.38" x2="500.24" y2="316.38"/><line class="cls-5" x1="489.94" y1="251.88" x2="489.94" y2="306.14"/><polygon class="cls-6" points="477.01 267.07 489.94 254.13 502.87 267.07 502.87 256.09 489.94 243.16 477.01 256.09 477.01 267.07"/><polygon class="cls-6" points="477.01 290.95 489.94 303.88 502.87 290.95 502.87 301.93 489.94 314.86 477.01 301.93 477.01 290.95"/></svg>