<svg id="Calque_1" data-name="Calque 1" xmlns="http://www.w3.org/2000/svg" viewBox="0 0 525.2 484.62"><defs><style>.cls-1{fill:#fbc109;}.cls-2{fill:#636569;}</style></defs><rect class="cls-1" width="525.2" height="484.62"/><path class="cls-2" d="M130.59,177.36l.16,33.11a7.41,7.41,0,0,0,7.4,7.39h.74a7.47,7.47,0,0,0,6.71-7.43l-.16-36.13a7.47,7.47,0,0,0-2.15-5.19l-29.55-30a7.43,7.43,0,1,0-10.58,10.44Z"/><path class="cls-2" d="M212.67,341.15a27.76,27.76,0,0,0-2.88.14,29.7,29.7,0,0,0,2.86,59.27,27.94,27.94,0,0,0,2.89-.13,29.71,29.71,0,0,0-2.87-59.28Zm14.88,29.65a15,15,0,0,1-13.43,14.84c-.48,0-.92.06-1.46.07a14.85,14.85,0,0,1-1.44-29.63,12.57,12.57,0,0,1,1.37-.07h.07a14.89,14.89,0,0,1,14.89,14.79Z"/><path class="cls-2" d="M401.29,340.29h-.14a24.7,24.7,0,0,0-2.73.15,29.7,29.7,0,0,0,2.84,59.27h.15a25.56,25.56,0,0,0,2.77-.14,29.71,29.71,0,0,0-2.89-59.28Zm14.84,29.65a14.77,14.77,0,0,1-13.37,14.85,11.8,11.8,0,0,1-1.46.06,14.85,14.85,0,0,1-1.45-29.63c.45,0,.92-.07,1.38-.07A14.84,14.84,0,0,1,416.13,369.94Z"/><path class="cls-2" d="M401.32,230.19a7.43,7.43,0,0,0-5.22-12.72h0l-33.27.15a7.45,7.45,0,0,0-7.41,7.46l.25,51.58a7.44,7.44,0,0,0,7.42,7.42h0l72.29-.34h.71a7.43,7.43,0,0,0-.72-14.82h0l-64.88.3-.17-36.74,25.82-.12A7.58,7.58,0,0,0,401.32,230.19Z"/><path class="cls-2" d="M469.27,278.31l-2.55-3c-8.5-10-34.38-40.59-56.76-71.61-26.18-36.33-63.27-32.42-67.2-31.88l-91,.41a7.53,7.53,0,0,0-5.09,2.06L245,175.8a7.42,7.42,0,0,0-2.26,4.92c-3.14,52-35.27,89.16-83.83,97a3.43,3.43,0,0,0-.84.2l-15,2.39L143,264.39c1.27-.07,2.53-.16,3.78-.28a90.24,90.24,0,0,0-8.78-180h-.44A90.27,90.27,0,0,0,47.8,174.7,7.47,7.47,0,0,0,50,180a7.35,7.35,0,0,0,5.26,2.15,7.48,7.48,0,0,0,7.4-7.46,75.35,75.35,0,0,1,75-75.72H138a75.37,75.37,0,0,1,5,150.53l-.08-16.43-41,24,40.85,23.34-5.42.87a7.4,7.4,0,0,0-6.25,7.37l.34,72.61a7.43,7.43,0,0,0,7.42,7.4h0l26.73-.11h0a7.42,7.42,0,0,0,7.37-7.47c-.05-9.35,4.19-18.38,11.92-25.43a40.3,40.3,0,0,1,55.08-.26c7.79,7,12.1,16,12.14,25.33a7.46,7.46,0,0,0,7.45,7.4h0l97.94-.45a7.07,7.07,0,0,0,5.23-2.12,7.45,7.45,0,0,0-5.22-12.74h0l-91.19.41c-1.83-10.91-7.49-20.87-16.43-28.89a56.76,56.76,0,0,0-37.34-14.55h-.23a57,57,0,0,0-37.46,14.89c-8.87,8.09-14.45,18.1-16.19,29l-12.49.06L146,294.91l15.27-2.45a4.58,4.58,0,0,0,.89-.2c52.43-8.86,89.57-50.08,95-105.23l86.13-.38a9.45,9.45,0,0,0,1.07-.1c1.28-.2,31.69-4.55,53.57,25.81,22.38,31,47.76,61.06,57.45,72.52l2.52,3c4.49,5.38,4.57,23.28,4.65,42.24.05,6.52-.13,13.79-1.77,18.25-1.08,3-2.38,3.9-5.65,4a51.06,51.06,0,0,0-50.49-43.46h-.22a56.42,56.42,0,0,0-45.77,24.42,7.43,7.43,0,0,0,12.27,8.37,42,42,0,0,1,33.56-17.92,36.27,36.27,0,0,1,36.37,36.09,7.43,7.43,0,0,0,7.43,7.39h7a23.69,23.69,0,0,0,2.38-.11h0c8.18-.79,14.08-5.5,17-13.62,2.3-6.23,2.74-13.89,2.7-23.47C477.29,305.5,477.21,287.81,469.27,278.31Z"/></svg>