<svg id="Calque_1" data-name="Calque 1" xmlns="http://www.w3.org/2000/svg" viewBox="0 0 525.2 484.62"><defs><style>.cls-1{fill:#fbc109;}.cls-2,.cls-3,.cls-4{isolation:isolate;}.cls-3,.cls-4{font-size:136.91px;fill:#636569;font-family:Arial-BoldMT, Arial;font-weight:700;}.cls-3{letter-spacing:-0.05em;}.cls-4{letter-spacing:-0.07em;}.cls-5{fill:none;stroke:#636569;stroke-miterlimit:10;stroke-width:16.32px;}</style></defs><rect class="cls-1" width="525.2" height="484.62"/><g class="cls-2"><text class="cls-3" transform="translate(139.56 312.37)">2 </text><text class="cls-4" transform="translate(234.83 312.37)">k</text><text class="cls-3" transform="translate(305.97 312.37)">g</text></g><path class="cls-5" d="M406,156.62a31.15,31.15,0,0,0-31-31.06H340.16a74.54,74.54,0,0,0-148.35,0H152.48a31.16,31.16,0,0,0-31.06,31.06l-40.66,227c0,17.08,18,31.05,39.93,31.05H406.76c22,0,39.93-14,39.93-31.05ZM266,92.24a40.67,40.67,0,0,1,40,33.32H226A40.67,40.67,0,0,1,266,92.24Z"/></svg>