<svg id="Calque_1" data-name="Calque 1" xmlns="http://www.w3.org/2000/svg" viewBox="0 0 525.2 484.62"><defs><style>.cls-1{fill:#fbc109;}.cls-2{fill:#636569;}</style></defs><rect class="cls-1" width="525.2" height="484.62"/><path class="cls-2" d="M410.53,136.09v202H114.67v-202H410.53m0-17.06H114.67a17.06,17.06,0,0,0-17.06,17.06v202a17.06,17.06,0,0,0,17,17.07H410.53A17.08,17.08,0,0,0,427.6,338.1v-202a17.06,17.06,0,0,0-17-17.1h-.05Z"/><path class="cls-2" d="M316.42,194.05c-8.4-2.2-17.05-4.48-26.16-4.48-9.89,0-19.39,2.25-28.61,4.43-4.53,1.09-8.83,2.1-13.2,2.88l2.21,12.39c4.7-.84,9.37-2,13.89-3,8.87-2.12,17.28-4.1,25.71-4.1,7.46,0,15,2,23,4.07,2.72.68,5.47,1.4,8.24,2V231h71.81V151H321.48V171.6c-1.63-.44-3.32-.85-5-1.33-8.42-2.2-17.07-4.48-26.18-4.48-9.89,0-19.39,2.26-28.61,4.46-4.53,1.08-8.83,2.07-13.2,2.86l2.21,12.39c4.7-.85,9.37-1.91,13.89-3,8.87-2.14,17.28-4.13,25.71-4.13,7.46,0,15,2,23,4.07,2.72.71,5.47,1.41,8.27,2v10.8C319.85,194.92,318.16,194.49,316.42,194.05Zm17.67-30.33h46.6v54.74h-46.6Z"/></svg>