<svg id="Calque_1" data-name="Calque 1" xmlns="http://www.w3.org/2000/svg" viewBox="0 0 525.2 484.62"><defs><style>.cls-1{fill:#fbc109;}.cls-2{fill:#636569;}</style></defs><rect class="cls-1" width="525.2" height="484.62"/><path class="cls-2" d="M434.26,127.92a6.72,6.72,0,0,0-2-.87c-.16-.08-.31-.16-.46-.22l-165-74a7,7,0,0,0-5.64,0l-166,74.41h-.1a6.91,6.91,0,0,0-5.8,6.72L87.5,272.31a6.76,6.76,0,0,0,.28,2l.09,73.26a6.89,6.89,0,0,0,4,6.27l172.35,78a6.82,6.82,0,0,0,3.25.5,4.41,4.41,0,0,0,1.08-.22l.3-.05.62-.22L433.72,355a6.93,6.93,0,0,0,4-6.25v-5h0l-.24-210.11A6.85,6.85,0,0,0,434.26,127.92Zm-167.68,75L113.23,134.17,263.94,66.62l150,67.28ZM423.7,144.53l.21,199.3v.59L273.76,414.71l-.23-199.88ZM101.3,269.71l1.57-125.09,156.91,70.3L260,414.86,101.62,343.14l-.07-71.64A7.22,7.22,0,0,0,101.3,269.71Z"/><polygon class="cls-2" points="238.04 382.58 229.83 378.78 229.79 336.13 238.63 340.22 221.95 307.18 205.64 324.86 213.72 328.63 213.76 371.3 194.23 362.24 194.19 319.55 203.05 323.68 186.36 290.63 170.05 308.34 178.11 312.08 178.16 354.77 170.01 350.99 170.01 361.22 238.04 392.86 238.04 382.58"/></svg>