<svg id="Calque_1" data-name="Calque 1" xmlns="http://www.w3.org/2000/svg" viewBox="0 0 525.2 484.62"><defs><style>.cls-1{fill:#fbc109;}.cls-2{fill:#636569;}</style></defs><rect class="cls-1" width="525.2" height="484.62"/><path class="cls-2" d="M440.81,203.09l-28.17-39.54c-.11-.15-.28-.28-.4-.42s-.36-.44-.57-.64-.15-.16-.23-.23-.38-.24-.57-.37a4.37,4.37,0,0,0-.48-.37c-.1-.06-.21-.07-.31-.13H410a1.37,1.37,0,0,0-.2-.13l-144-66A6,6,0,0,0,265,95l-.2-.07a3.88,3.88,0,0,0-.49-.11l-.38-.07c-.23,0-.47-.07-.7-.08h-.87a8.3,8.3,0,0,0-1,.14h-.11a1.8,1.8,0,0,0-.44.12,2.53,2.53,0,0,0-.36.12,6.52,6.52,0,0,0-.73.29.22.22,0,0,0-.18.06L122.63,164h0l-.27.16-.15.06a1.37,1.37,0,0,0-.23.19,6.69,6.69,0,0,0-1,.75l-.07.06-.06.07a7.66,7.66,0,0,0-1,1.27.13.13,0,0,1-.06.1h0l-.14.21L87.4,225.73a6.9,6.9,0,0,0,2.76,9.35l.16.08,29.24,15.32v48.07a6.59,6.59,0,0,0,3.36,6.14l143.8,84.53a5.87,5.87,0,0,0,1,.42,3.9,3.9,0,0,0,.47.2,7,7,0,0,0,1.71.21,7.42,7.42,0,0,0,1.93-.26c.2-.06.38-.18.58-.25a6.57,6.57,0,0,0,1.13-.47.4.4,0,0,1,.09-.07l.1-.05,136.9-85.85a.39.39,0,0,0,.1-.08c1.92-1.2,1.61-5.79,1.61-5.79V204.74L431,213.32a9,9,0,0,0,3.54.72,7.6,7.6,0,0,0,5.61-2.43A6.86,6.86,0,0,0,440.81,203.09ZM103.36,226.16l25.52-46.63,131.43,66.08L234.64,295Zm159,145.27L133.84,296V258l100.48,52.66a7.33,7.33,0,0,0,3.37.83,7.21,7.21,0,0,0,6.38-3.81l18.31-35.22Zm7.27-259.71L392.7,166.88l-123,64.28Zm-12.7,116.71L137.06,169.55l119.12-58.2Zm141.12,65L276.66,370.32V244l121.39-67.21Z"/></svg>