<svg id="Calque_1" data-name="Calque 1" xmlns="http://www.w3.org/2000/svg" viewBox="0 0 525.2 484.62"><defs><style>.cls-1{fill:#fbc109;}.cls-2{fill:#636569;}</style></defs><rect class="cls-1" width="525.2" height="484.62"/><path class="cls-2" d="M378.84,297.83l25.39,84.51a16,16,0,0,0,2.93-3.11l55.7-75a16.28,16.28,0,0,0,1.64-2.83ZM329.34,272l-92.22.29a16.56,16.56,0,0,0,4.34,4.9L383.73,382.7a17.2,17.2,0,0,0,6.82,3L364,297.17l-4-.14a18.54,18.54,0,0,1-2.58-.18,33.09,33.09,0,0,1-15.55-6.41,31.67,31.67,0,0,1-11.56-15.67Zm-4.91-14-28.57-81.56a16.94,16.94,0,0,0-2.21,2.35l-55.65,75a16.8,16.8,0,0,0-2.29,4.53Zm141,28.46a15,15,0,0,0-1.27-1.25L312.06,172.57a9.23,9.23,0,0,0-2.15-1.29L344,268.57a20,20,0,0,0,7.2,9.49,20.52,20.52,0,0,0,9.48,3.94,10.41,10.41,0,0,0,1.48.1Z"/><path class="cls-2" d="M239.26,347.72a16.65,16.65,0,1,1-8,6.92l-34-48.58a5.25,5.25,0,0,1,8.61-6Zm-15.78,31.57a5.24,5.24,0,0,1-7.3-1.28l-35.1-50.14a16.1,16.1,0,0,1-5.23.94,16.39,16.39,0,1,1,13.62-7.26L224.77,372a5.24,5.24,0,0,1-1.29,7.3h0m-45,0a16.3,16.3,0,0,1-14.1-24.67l-34-48.59a5.25,5.25,0,0,1,8.6-6l33.39,47.68a16.39,16.39,0,1,1,6.12,31.6m-23.22,0a5.21,5.21,0,0,1-3,.95A5.28,5.28,0,0,1,148,378L112.87,327.9a16.1,16.1,0,0,1-5.23.94,16.41,16.41,0,1,1,13.61-7.26L156.54,372a5.25,5.25,0,0,1-1.29,7.3m-47.64,0A16.4,16.4,0,1,1,124,362.9h0a16.4,16.4,0,0,1-16.4,16.4m69.25-251.54A24,24,0,0,1,191.13,171v29.1a14.31,14.31,0,0,1-28.61,0V171a24,24,0,0,1,14.34-43.24m115.67,21.46.1-5.3V55.84H59.8V418.36H292.63V338.89l-.1-.1L259,313.58a16.36,16.36,0,1,1-22-16.51l-3.49-2.63C199,267,222.73,242.67,222.73,242.67Z"/></svg>