<svg id="Calque_1" data-name="Calque 1" xmlns="http://www.w3.org/2000/svg" viewBox="0 0 525.2 484.62"><defs><style>.cls-1{fill:#fbc109;}.cls-2{fill:#636363;}</style></defs><rect class="cls-1" width="525.2" height="484.62"/><path class="cls-2" d="M240.35,353.69h61.72l-30.83-58.17ZM471.92,266.9H436.56l-15-72.13a9,9,0,0,0-8.62-7.54H400a29.76,29.76,0,0,0,.29-3.77c0-14.36-10.75-26-23.91-26s-23.89,11.65-23.89,26a28,28,0,0,0,.28,3.77h-13a9,9,0,0,0-8.63,7.54l-15,72.13h-65.5l-20.47-98.68a9.11,9.11,0,0,0-8.65-7.51h-24.3a33.77,33.77,0,0,0,.27-3.76c0-14.36-10.73-26-23.91-26s-23.9,11.66-23.9,26a33.79,33.79,0,0,0,.28,3.76H125.64a9.07,9.07,0,0,0-8.65,7.51L96.53,266.9H61.47c-4.87,0-8.86,4.31-8.86,9.64s4,9.65,8.86,9.65H471.92c4.87,0,8.85-4.32,8.85-9.65S476.79,266.9,471.92,266.9ZM173.58,146.15c5.47,0,9.93,4.84,9.93,10.8a11.25,11.25,0,0,1-.68,3.76h-18.5a11.77,11.77,0,0,1-.67-3.76C163.66,151,168.1,146.15,173.58,146.15ZM115.06,265l17.64-85h81.73l17.65,85Zm261.31-92.37c5.47,0,9.93,4.84,9.93,10.79a10.79,10.79,0,0,1-.68,3.77h-18.5a11.51,11.51,0,0,1-.67-3.77c0-5.91,4.44-10.75,9.92-10.75ZM334.31,266.9l12.52-60.38h59L418.4,266.9Z"/></svg>